<svg width="636" height="596" viewBox="0 0 636 596" fill="none" xmlns="http://www.w3.org/2000/svg">
<g clip-path="url(#clip0_1_2)">
<path d="M626.439 5.481H187.101V264.999H626.439V5.481Z" fill="#D5DBDA"/>
<path d="M614.244 10.557H199.295V259.923H614.244V10.557Z" fill="white"/>
<path d="M580.988 22.095H229.72V38.75H580.988V22.095Z" fill="#EFEFEF"/>
<path d="M261.587 180.558H242.481V228.524H261.587V180.558Z" fill="#671E75"/>
<path d="M304.64 138.45H285.534V228.524H304.64V138.45Z" fill="#E06287"/>
<path d="M347.694 147.764H328.588V228.524H347.694V147.764Z" fill="#671E75"/>
<path d="M390.748 102.167H371.642V228.525H390.748V102.167Z" fill="#E06287"/>
<g style="mix-blend-mode:multiply" opacity="0.15">
<path opacity="0.26" d="M294.303 138.45H285.534V228.524H294.303V138.45Z" fill="black"/>
</g>
<g style="mix-blend-mode:multiply" opacity="0.15">
<path opacity="0.26" d="M251.25 180.558H242.481V228.524H251.25V180.558Z" fill="black"/>
</g>
<g style="mix-blend-mode:multiply" opacity="0.62">
<path opacity="0.26" d="M380.411 102.167H371.642V228.525H380.411V102.167Z" fill="black"/>
</g>
<g style="mix-blend-mode:multiply" opacity="0.15">
<path opacity="0.26" d="M337.357 147.764H328.588V228.524H337.357V147.764Z" fill="black"/>
</g>
<path d="M400.858 241.728H229.863V59.649H232.471V239.12H400.858V241.728Z" fill="#D5DBDA"/>
<path d="M247.426 158.095L245.684 156.154L290.415 115.988L331.847 124.989L376.711 75.043L378.652 76.786L332.774 127.86L291.165 118.821L247.426 158.095Z" fill="#D5DBDA"/>
<path d="M382.167 84.165L369.516 72.034L385.848 67.665L382.167 84.165Z" fill="#D5DBDA"/>
<path d="M433.084 169.14H417.05V185.174H433.084V169.14Z" fill="#671E75"/>
<path d="M433.084 197.233H417.05V213.267H433.084V197.233Z" fill="#E06287"/>
<path d="M488.328 204.156H437.502V213.268H488.328V204.156Z" fill="#EFEFEF"/>
<path d="M488.328 176.062H437.502V185.174H488.328V176.062Z" fill="#EFEFEF"/>
<path d="M527.381 169.14H511.347V185.174H527.381V169.14Z" fill="#671E75"/>
<path d="M527.381 197.233H511.347V213.267H527.381V197.233Z" fill="#E06287"/>
<path d="M582.624 204.156H531.798V213.268H582.624V204.156Z" fill="#EFEFEF"/>
<path d="M582.624 176.062H531.798V185.174H582.624V176.062Z" fill="#EFEFEF"/>
<path d="M580.989 70.652H430.737V74.075H580.989V70.652Z" fill="#EFEFEF"/>
<path d="M580.988 78.941H418.941V82.364H580.988V78.941Z" fill="#EFEFEF"/>
<path d="M580.988 87.23H418.941V90.653H580.988V87.23Z" fill="#EFEFEF"/>
<path d="M580.988 95.518H418.941V98.941H580.988V95.518Z" fill="#EFEFEF"/>
<path d="M580.988 103.807H418.941V107.23H580.988V103.807Z" fill="#EFEFEF"/>
<path d="M580.988 112.096H418.941V115.519H580.988V112.096Z" fill="#EFEFEF"/>
<path d="M580.988 120.385H418.941V123.808H580.988V120.385Z" fill="#EFEFEF"/>
<path d="M580.988 128.674H418.941V132.097H580.988V128.674Z" fill="#EFEFEF"/>
<path d="M580.989 136.962H442.064V140.385H580.989V136.962Z" fill="#EFEFEF"/>
<path d="M635.86 3.382C635.86 4.27923 635.504 5.13971 634.869 5.77414C634.235 6.40858 633.375 6.765 632.477 6.765H181.062C180.618 6.765 180.178 6.67749 179.768 6.50747C179.358 6.33744 178.985 6.08824 178.671 5.77408C178.357 5.45993 178.107 5.08698 177.938 4.67655C177.768 4.26611 177.68 3.82622 177.68 3.382C177.68 2.93754 177.767 2.49732 177.937 2.08654C178.106 1.67575 178.355 1.30245 178.67 0.987981C178.984 0.673509 179.357 0.424035 179.767 0.253824C180.178 0.0836123 180.618 -0.00399811 181.062 -0.0039978H632.477C633.375 -0.0039978 634.235 0.352424 634.869 0.98686C635.504 1.6213 635.86 2.48177 635.86 3.379V3.382Z" fill="#66341B"/>
<path d="M635.86 267.096C635.86 267.993 635.504 268.854 634.869 269.488C634.235 270.123 633.375 270.479 632.477 270.479H181.062C180.618 270.479 180.178 270.391 179.768 270.221C179.358 270.051 178.985 269.802 178.671 269.488C178.357 269.174 178.107 268.801 177.938 268.391C177.768 267.98 177.68 267.54 177.68 267.096C177.68 266.652 177.768 266.212 177.938 265.801C178.107 265.391 178.357 265.018 178.671 264.704C178.985 264.39 179.358 264.141 179.768 263.971C180.178 263.801 180.618 263.713 181.062 263.713H632.477C633.375 263.713 634.235 264.069 634.869 264.704C635.504 265.338 635.86 266.199 635.86 267.096Z" fill="#66341B"/>
<path d="M112.267 564.842L114.717 433.874H106.005L108.454 564.842C108.387 565.129 108.386 565.428 108.45 565.716C108.515 566.004 108.643 566.274 108.827 566.505C109.01 566.736 109.243 566.923 109.509 567.051C109.775 567.179 110.066 567.246 110.361 567.246C110.656 567.246 110.947 567.179 111.213 567.051C111.478 566.923 111.712 566.736 111.895 566.505C112.078 566.274 112.207 566.004 112.272 565.716C112.336 565.428 112.335 565.129 112.267 564.842Z" fill="#723E24"/>
<path d="M32.1983 549.522L82.7973 428.696L74.6973 425.481L28.6533 548.115C28.3994 548.626 28.3496 549.214 28.514 549.76C28.6785 550.306 29.0447 550.769 29.5383 551.054C30.0934 551.185 30.6774 551.099 31.1716 550.815C31.6658 550.53 32.0329 550.068 32.1983 549.522Z" fill="#723E24"/>
<path d="M188.517 549.522L137.917 428.696L146.017 425.481L192.063 548.113C192.231 548.355 192.342 548.632 192.387 548.923C192.433 549.214 192.412 549.512 192.327 549.794C192.242 550.076 192.094 550.335 191.895 550.552C191.695 550.768 191.45 550.938 191.176 551.046C190.902 551.155 190.608 551.201 190.314 551.18C190.02 551.159 189.735 551.072 189.479 550.925C189.224 550.779 189.004 550.577 188.838 550.334C188.671 550.091 188.562 549.813 188.517 549.522Z" fill="#723E24"/>
<g style="mix-blend-mode:multiply" opacity="0.3">
<path d="M73.2934 429.228L78.4454 431.273L30.8854 550.955C31.4814 550.651 31.9477 550.142 32.1984 549.521L82.7974 428.696L74.6974 425.481L73.2934 429.228Z" fill="black"/>
<path d="M106.067 437.321H112.559L110.13 567.221C110.206 567.237 110.282 567.247 110.359 567.251C110.924 567.168 111.436 566.873 111.791 566.425C112.146 565.977 112.316 565.411 112.267 564.842L114.717 433.874H106.005L106.067 437.321Z" fill="black"/>
<path d="M192.061 548.115L146.015 425.483L137.915 428.698L138.845 430.92L143.856 428.931L189.637 550.859C189.86 551.01 190.115 551.106 190.382 551.141C190.648 551.176 190.92 551.148 191.173 551.059C191.669 550.774 192.037 550.31 192.202 549.763C192.367 549.216 192.317 548.627 192.061 548.115Z" fill="black"/>
</g>
<path d="M170.388 440.062C161.552 447.252 148.458 453.869 115.202 454.524C71.4553 455.386 48.5533 450.424 36.1233 427.86C15.3673 390.181 41.3413 268.453 82.3153 295.419C116.567 317.961 123.428 389.919 127.955 399.869C132.482 409.819 191.83 422.615 170.388 440.062Z" fill="#E8F6F7"/>
<path d="M122.785 445.204C79.0383 446.066 56.1373 441.104 43.7063 418.54C29.5373 392.822 37.1423 327.949 56.4283 297.928C31.7453 320.807 20.2213 398.996 36.1243 427.859C48.5543 450.42 71.4553 455.385 115.203 454.523C148.459 453.868 161.553 447.251 170.389 440.061C173.398 437.613 174.815 435.261 175.017 432.986C166.15 439.258 152.54 444.618 122.785 445.204Z" fill="#D0E0E2"/>
<path d="M141.447 157.196C144.436 148.572 147.196 139.508 151.884 144.086C156.816 148.905 156.421 148.323 154.63 155.009C152.839 161.695 138.932 164.45 141.447 157.196Z" fill="#FFE1BD"/>
<path d="M146.801 144.868C148.287 140.763 150.726 136.074 153.234 134.136C155.742 132.198 151.942 138.991 151.044 142.171C150.146 145.351 145.552 148.321 146.801 144.868Z" fill="#FFE1BD"/>
<path d="M142.767 191.612C146.281 178.426 148.037 161.192 148.037 161.192L141.454 156.76C141.454 156.76 128.054 184.303 120.813 205.212L83.4673 195.623L78.9153 194.695L91.0673 218.977C91.0673 218.977 127.036 224.214 129.246 222.977C131.456 221.74 139.189 205.036 142.767 191.612Z" fill="#F4F4F4"/>
<path d="M129.245 222.976C127.035 224.213 91.0664 218.976 91.0664 218.976L78.9144 194.696L83.4654 195.624C86.8204 197.04 92.2564 202.474 96.6704 208.247C99.8574 212.415 101.613 213.898 106.428 215.704C113.793 218.466 121.619 220.425 124.56 220.635C129.531 220.966 130.017 221.209 131.078 219.751C131.148 220.413 131.009 221.08 130.68 221.658C130.351 222.236 129.85 222.697 129.245 222.976Z" fill="#EAEAEA"/>
<path d="M41.3154 268.01C43.6656 274.05 44.1788 280.65 42.7904 286.981C39.9964 299.555 43.1764 300.399 43.1764 300.399C43.1764 300.399 60.2184 311.216 74.3924 315.637C84.5504 318.798 93.2084 318.263 92.9674 307.048L92.9594 306.894C92.9414 306.213 92.9254 305.562 92.9094 304.927C92.4304 279.72 97.6864 278.438 98.9824 250.212C100.319 221.256 92.5824 205.105 84.9144 198.1C77.2354 191.111 66.7554 190.851 47.0414 195.511C32.2324 199 27.3544 202.93 27.4744 213.888C27.6487 218.419 28.1813 222.93 29.0674 227.377C31.5134 241.167 37.3514 257.722 41.3154 268.01Z" fill="#F4F4F4"/>
<path d="M77.0793 205.996C77.0793 205.996 92.4403 256.35 89.3673 280.471L83.7083 290.771L77.5213 279.543C77.5213 279.543 82.5523 231.318 72.9213 206.85L77.0793 205.996Z" fill="#3A3A3A"/>
<path d="M41.3154 268.01C43.6656 274.05 44.1788 280.65 42.7904 286.981C39.9964 299.555 43.1764 300.399 43.1764 300.399C43.1764 300.399 60.2184 311.216 74.3924 315.637L87.6364 314.381L92.9364 310.215L92.9574 306.893C92.9394 306.212 92.9234 305.561 92.9074 304.926C86.2404 305.434 79.5389 305.26 72.9074 304.405C66.1946 303.572 59.6088 301.923 53.2964 299.492C51.6277 298.861 50.2322 297.667 49.3515 296.116C48.4709 294.564 48.1606 292.754 48.4744 290.998C49.5573 285.196 50.1706 279.316 50.3084 273.415C50.2684 267.865 47.6984 258.485 45.5974 251.715C44.0194 246.524 43.4208 241.084 43.8324 235.674C44.2166 229.586 44.2116 223.479 43.8174 217.391L33.3174 211.704L27.4694 213.883C27.645 218.416 28.1794 222.928 29.0674 227.377C31.5134 241.167 37.3514 257.722 41.3154 268.01Z" fill="#E2E2E2"/>
<path d="M41.0983 321.505C39.8853 321.705 36.7833 316.259 36.7833 316.259L38.0833 314.532C38.8184 313.556 39.8433 312.838 41.0113 312.48L41.2223 312.415C41.7318 312.254 42.2794 312.261 42.7847 312.435C43.2901 312.608 43.7266 312.939 44.0303 313.378C44.9213 314.698 46.2953 316.204 47.8933 316.146H47.9213C47.9746 316.169 48.0326 316.178 48.0903 316.174C49.5033 316.203 42.3113 321.307 41.0983 321.505Z" fill="#F4D5B5"/>
<path d="M88.9403 146.302C88.9403 146.302 90.2553 149.976 88.2673 152.896L80.1393 141.896L85.8083 141.844L88.9403 146.302Z" fill="#632F00"/>
<path d="M44.7984 160.853C45.1574 175.043 57.3984 183.267 57.3984 183.267L56.5804 196.182L64.8374 201.534L70.5034 205.202L73.7554 198.407L74.2014 190.081C74.2549 189.138 74.6179 188.239 75.234 187.524C75.8501 186.808 76.685 186.316 77.6094 186.123C80.7297 185.367 83.5413 183.667 85.6614 181.256C85.8485 181.057 86.0203 180.845 86.1754 180.62L86.1944 180.609C91.5604 173.298 93.5944 145.299 75.2224 137.35C56.2544 129.12 44.4284 146.643 44.7984 160.853Z" fill="#FFE1BD"/>
<path d="M65.3924 193.788L64.8364 201.534L70.5024 205.202L73.7544 198.407L74.2004 190.081C74.2539 189.138 74.6169 188.239 75.233 187.524C75.8491 186.808 76.684 186.316 77.6084 186.123C80.7287 185.367 83.5403 183.667 85.6604 181.256C85.8475 181.057 86.0194 180.845 86.1744 180.62C82.6002 182.571 78.6717 183.787 74.6204 184.196C72.204 184.465 69.9581 185.572 68.2724 187.324C66.5868 189.076 65.5678 191.363 65.3924 193.788Z" fill="#E8C5A0"/>
<path d="M64.6093 165.227C63.8913 165.521 63.2093 164.411 63.2093 164.411C63.2093 164.411 59.2263 155.466 57.8553 154.095C55.4063 151.614 49.6283 151.843 49.1723 159.514C48.8133 165.455 55.8313 178.122 57.9863 181.843C58.1504 182.137 58.2044 182.479 58.1386 182.809C58.0728 183.139 57.8915 183.435 57.6273 183.643C57.3936 183.802 57.1251 183.903 56.8443 183.937H56.7443C56.4101 183.944 56.085 183.828 55.8303 183.611C51.2933 179.628 31.3143 160.466 47.1793 142.446C47.1793 142.446 59.7793 143.262 61.7063 149.334C63.0824 154.043 64.1843 158.828 65.0063 163.665C65.0063 163.665 65.3603 164.896 64.6093 165.227Z" fill="#8C4200"/>
<path d="M88.9404 146.302C88.9404 146.302 77.9134 137.702 61.1674 148.179L47.4544 144.679C47.4544 144.679 46.8774 144.492 47.1814 142.438C47.4854 140.384 49.0004 120.223 73.0204 124.755C86.8314 127.361 95.2904 136.932 88.9404 146.302Z" fill="#8C4200"/>
<path d="M78.1423 201.71L78.0623 202.37C77.9104 203.619 77.5793 204.84 77.0793 205.995L72.9213 206.846L69.2993 204.146L73.4533 199.316L74.0983 199.48C75.5873 199.859 76.9575 200.606 78.0833 201.652L78.1423 201.71Z" fill="#606060"/>
<path d="M56.6793 190.163C55.0692 191.223 53.7107 192.622 52.6993 194.263C54.4469 195.059 56.1495 195.95 57.7993 196.932C59.9683 198.256 70.3903 205.618 70.3903 205.618L73.4553 199.324C73.4553 199.324 62.5673 191.813 56.6793 190.163Z" fill="#E2E2E2"/>
<path d="M73.4534 199.319C73.4534 199.319 77.1004 200.566 78.2204 203.29C78.2204 203.29 80.0854 199.716 77.7024 193.355C76.642 192.346 75.4519 191.483 74.1634 190.788L73.4534 199.319Z" fill="#E2E2E2"/>
<path d="M44.4673 312.613C45.2243 313.6 46.0647 314.519 46.9793 315.362C47.5533 315.678 47.6513 315.006 47.4343 314.532C47.2173 314.058 44.5553 311.969 44.4673 312.613Z" fill="#E5BB98"/>
<path d="M56.8404 183.932H56.7404C56.4061 183.939 56.081 183.823 55.8264 183.606C51.2894 179.623 31.3104 160.461 47.1754 142.441C46.725 144.321 46.5708 146.259 46.7184 148.186C46.7184 148.186 36.6004 164.541 56.8404 183.932Z" fill="#632F00"/>
<path d="M66.6674 572.889C103.032 572.889 132.511 570.646 132.511 567.88C132.511 565.114 103.032 562.871 66.6674 562.871C30.3027 562.871 0.823364 565.114 0.823364 567.88C0.823364 570.646 30.3027 572.889 66.6674 572.889Z" fill="#D8D8D8"/>
<path d="M34.1363 548.766C35.0023 552.091 34.6723 553.281 35.0133 555.449C35.4383 558.137 37.9073 559.115 39.3383 561.322C40.9143 563.753 43.3893 567.653 33.7223 567.849C23.3733 568.056 17.2423 567.341 18.9973 561.49C20.7523 555.639 21.0973 553.063 20.9753 551.157C20.8533 549.251 20.9803 547.262 22.1493 546.117C23.3183 544.972 32.6103 542.914 34.1363 548.766Z" fill="#8C4200"/>
<path d="M36.3224 362.779C36.3224 362.779 19.9854 336.706 43.1764 300.396C43.1764 300.396 61.2504 308.487 75.7234 309.463C87.1234 310.232 92.9074 309.052 92.9074 309.052C92.9074 309.052 93.8674 343.961 93.9074 362.777H36.3224V362.779Z" fill="#3A3A3A"/>
<path d="M47.3323 438.546C51.8013 419.7 33.2533 416.381 27.3973 430.016C19.1133 449.301 19.7723 534.006 20.2153 546.311C20.2723 547.922 21.1153 547.62 22.0153 547.294C24.6543 546.342 26.8663 545.964 27.9153 546.188C30.02 546.842 32.0595 547.69 34.0073 548.721C35.7503 531.961 43.0083 456.796 47.3323 438.546Z" fill="#3A3A3A"/>
<path d="M64.0104 365.321C65.9684 341.909 57.0344 323.721 43.0394 331.457C37.1484 334.71 34.9924 341.22 34.2024 347.349C33.4124 353.478 29.0754 417.177 27.5564 428.687C24.1324 454.636 43.8784 447.643 46.0204 440.453C51.4244 422.296 62.9434 378.078 64.0104 365.321Z" fill="#3A3A3A"/>
<path d="M96.9794 437.33C97.7124 419.761 83.0184 420.779 77.0884 434.43C64.2794 463.922 77.1814 526.713 79.8114 556.33C82.6824 551.563 88.1244 549.948 89.4024 550.049C90.0313 550.111 90.6404 550.304 91.1912 550.613C91.742 550.923 92.2225 551.344 92.6024 551.849C92.1814 515.516 96.1934 456.115 96.9794 437.33Z" fill="#3A3A3A"/>
<path d="M77.7474 439.236C79.9374 446.409 98.8054 454.711 96.8344 428.599C95.9604 417.018 93.6344 353.064 93.1814 346.899C92.7284 340.734 91.7014 331.723 88.7214 330.599C73.8214 324.975 59.3734 343.365 63.2944 366.514C65.9114 381.99 73.2034 424.358 77.7474 439.236Z" fill="#3A3A3A"/>
<path d="M92.5484 552.378C93.3304 553.899 97.0724 557.415 102.259 559.733C107.446 562.051 118.431 563.133 112.327 565.174C106.223 567.215 99.1054 565.974 95.4974 565.4C91.7375 564.875 87.9421 564.646 84.1464 564.715C78.5374 564.677 78.4944 564.332 79.2464 558.007C80.2914 549.303 90.0254 547.46 92.5484 552.378Z" fill="#8C4200"/>
<path d="M40.0743 307.416L42.9533 311.473C44.4738 311.281 46.0167 311.558 47.3751 312.268C48.7335 312.977 49.8425 314.085 50.5533 315.443C52.9903 320.215 44.3693 326.191 41.9183 323.987C39.4673 321.783 34.1373 311.596 34.1373 311.596L40.0743 307.416Z" fill="#FFE1BD"/>
<path d="M18.5374 294.546C24.2296 300.521 29.5576 306.832 34.4923 313.446L35.9783 312.446L41.6674 308.576C41.6674 308.576 29.9974 284.136 26.6814 272.203C25.2612 267.199 22.9328 262.498 19.8124 258.336C20.0344 258.123 20.2414 257.912 20.4624 257.684C28.9214 248.677 35.5144 237.063 40.5303 229.947C42.9518 226.524 44.5905 222.61 45.3303 218.483C45.8239 215.688 45.8512 212.831 45.4114 210.027C44.6954 205.565 42.8194 201.455 38.5023 200.395C36.9235 200.008 35.2625 200.133 33.7593 200.752C32.0747 201.441 30.6521 202.647 29.6964 204.196C23.1024 214.864 4.42435 243.742 1.48735 250.865C1.00121 252.034 0.665201 253.259 0.487351 254.512C0.399548 254.925 0.332795 255.342 0.287351 255.762C-0.846649 267.446 10.7534 286.696 18.5374 294.546Z" fill="#F4F4F4"/>
<path d="M18.5374 294.546C24.2296 300.521 29.5576 306.832 34.4923 313.446L35.9783 312.446C35.9783 312.446 27.4154 300.515 23.3684 295.682C17.1684 288.282 12.8074 282.508 9.10835 275.711C5.40935 268.914 3.66735 255.811 5.62735 252.132C7.57135 248.455 18.4964 232.208 20.8394 229.085C23.1834 225.977 42.3563 206.847 36.8523 201.516C36.4206 201.177 35.9216 200.933 35.3885 200.802C34.8554 200.67 34.3004 200.654 33.7603 200.753C32.0755 201.442 30.6525 202.647 29.6964 204.196C23.1024 214.864 4.42435 243.742 1.48735 250.865C1.00121 252.034 0.665201 253.259 0.487351 254.512C0.399548 254.925 0.332795 255.342 0.287351 255.762C-0.846649 267.446 10.7534 286.696 18.5374 294.546Z" fill="#EAEAEA"/>
<path d="M49.0914 311.696C49.0914 311.696 46.4564 320.99 34.7474 326.333C24.6474 330.942 50.9204 333.578 51.5064 332.553C52.0924 331.528 57.1414 314.566 57.1414 314.566L49.0914 311.696Z" fill="#3A3A3A"/>
<path d="M250.345 557.478L252.809 425.705H244.043L246.507 557.478C246.44 557.767 246.439 558.067 246.505 558.356C246.57 558.646 246.699 558.917 246.884 559.149C247.068 559.381 247.303 559.569 247.57 559.697C247.837 559.826 248.13 559.893 248.426 559.893C248.723 559.893 249.016 559.826 249.283 559.697C249.55 559.569 249.784 559.381 249.969 559.149C250.153 558.917 250.283 558.646 250.348 558.356C250.413 558.067 250.412 557.767 250.345 557.478Z" fill="#723E24"/>
<path d="M169.787 542.064L220.697 420.496L212.55 417.262L166.221 540.648C166.052 540.892 165.94 541.171 165.893 541.464C165.847 541.757 165.867 542.057 165.953 542.341C166.039 542.625 166.187 542.886 166.388 543.105C166.589 543.323 166.836 543.494 167.112 543.603C167.388 543.713 167.685 543.758 167.981 543.737C168.277 543.716 168.564 543.628 168.821 543.48C169.079 543.332 169.299 543.128 169.466 542.882C169.634 542.637 169.743 542.357 169.787 542.064Z" fill="#723E24"/>
<path d="M327.067 542.064L276.155 420.496L284.303 417.262L330.632 540.647C330.802 540.891 330.914 541.169 330.961 541.463C331.008 541.756 330.988 542.056 330.902 542.34C330.817 542.624 330.668 542.886 330.467 543.104C330.267 543.323 330.019 543.494 329.743 543.603C329.467 543.713 329.17 543.759 328.874 543.738C328.578 543.716 328.291 543.628 328.033 543.48C327.776 543.332 327.555 543.128 327.388 542.883C327.221 542.638 327.111 542.358 327.067 542.064Z" fill="#723E24"/>
<g style="mix-blend-mode:multiply" opacity="0.3">
<path d="M211.135 421.031L216.319 423.089L168.467 543.506C169.067 543.199 169.536 542.687 169.788 542.063L220.697 420.496L212.55 417.262L211.135 421.031Z" fill="black"/>
<path d="M244.108 429.174H250.64L248.196 559.868C248.272 559.884 248.35 559.894 248.427 559.898C248.995 559.814 249.509 559.517 249.865 559.068C250.222 558.618 250.393 558.05 250.345 557.478L252.809 425.705H244.043L244.108 429.174Z" fill="black"/>
<path d="M330.632 540.648L284.303 417.263L276.155 420.497L277.092 422.732L282.133 420.732L328.197 543.408C328.421 543.559 328.678 543.656 328.946 543.691C329.214 543.726 329.487 543.697 329.742 543.608C330.24 543.321 330.609 542.855 330.774 542.304C330.94 541.754 330.889 541.162 330.632 540.648Z" fill="black"/>
</g>
<path d="M312.241 380.616C312.241 431.156 283.67 443.258 248.426 443.258C213.182 443.258 184.611 431.158 184.611 380.616C184.611 330.074 213.182 281.231 248.426 281.231C283.67 281.231 312.241 330.076 312.241 380.616Z" fill="#E8F6F7"/>
<path d="M253.55 431.88C218.306 431.88 189.736 419.78 189.736 369.238C189.747 352.249 192.89 335.407 199.006 319.557C190.006 337.011 184.612 358.657 184.612 380.617C184.612 431.157 213.183 443.259 248.427 443.259C276.059 443.259 299.586 435.817 308.461 408.247C297.341 426.556 276.914 431.88 253.55 431.88Z" fill="#D0E0E2"/>
<path d="M217.833 367.375C217.833 367.375 209.633 384.845 207.964 396.519C205.526 413.563 209.128 420.946 230.904 421.626C252.68 422.306 259.028 418.063 269.412 418.063C279.796 418.063 291.865 398.377 278.493 375.002L217.833 367.375Z" fill="#E06287"/>
<path d="M227.186 510.496L226.786 517.107C226.786 517.107 220.351 536.067 220.034 540.849C219.481 549.186 223.162 558.519 226.74 558.466C230.819 558.406 236.44 553.178 238.946 542.731C240.646 535.656 237.894 521.799 238.872 518.547C239.85 515.295 241.823 508.991 241.823 508.991L227.186 510.496Z" fill="#FFE1BD"/>
<path d="M239.458 538.669C236.638 541.515 230.902 547.505 228.625 547.39C226.262 547.271 222.125 540.01 220.748 537.006C220.416 538.266 220.178 539.549 220.036 540.845C219.483 549.182 223.164 558.515 226.742 558.462C230.821 558.402 236.442 553.174 238.948 542.727C239.241 541.393 239.411 540.034 239.458 538.669Z" fill="#8C4200"/>
<path d="M241.502 513.714C241.502 513.714 267.52 431.564 270.768 421.457C274.016 411.35 276.636 392.132 261.576 388.78C248.569 385.885 243.113 405.28 240.734 417.228C238.355 429.176 226.372 508.912 226.372 508.912C226.372 508.912 224.958 513.396 232.724 514.679C240.49 515.962 241.502 513.714 241.502 513.714Z" fill="#E48F93"/>
<g style="mix-blend-mode:multiply" opacity="0.1">
<path d="M257.003 388.696C251.353 396.42 248.487 410.83 246.888 418.853C244.509 430.797 232.647 512.167 232.647 512.167C232.647 512.167 234.647 513.192 238.974 515.127C238.286 515.078 237.595 515.075 236.906 515.12C228.533 515.72 226.493 510.545 226.493 510.545C226.493 510.545 238.355 429.174 240.734 417.231C242.813 406.796 247.242 390.667 257.003 388.696Z" fill="#E06287"/>
</g>
<path d="M194.56 507.332L193.694 513.898C193.694 513.898 185.927 532.352 185.267 537.096C184.123 545.373 187.13 554.944 190.703 555.146C194.776 555.376 200.755 550.561 203.997 540.319C206.197 533.382 204.436 519.365 205.644 516.19C206.852 513.015 209.267 506.872 209.267 506.872L194.56 507.332Z" fill="#FFE1BD"/>
<path d="M204.797 536.31C201.782 538.948 195.634 544.515 193.372 544.239C191.024 543.952 187.409 536.415 186.253 533.321C185.831 534.553 185.501 535.815 185.267 537.096C184.123 545.373 187.13 554.944 190.703 555.146C194.776 555.376 200.755 550.561 203.997 540.319C204.385 539.01 204.652 537.668 204.797 536.31Z" fill="#8C4200"/>
<path d="M208.611 511.563C208.611 511.563 240.405 431.471 244.364 421.621C248.323 411.771 252.303 392.788 237.519 388.373C224.751 384.56 217.929 403.522 214.707 415.267C211.485 427.012 193.861 505.697 193.861 505.697C193.861 505.697 192.131 510.069 199.787 511.897C207.443 513.725 208.611 511.563 208.611 511.563Z" fill="#E48F93"/>
<g style="mix-blend-mode:multiply" opacity="0.1">
<path d="M232.967 387.96C226.782 395.26 222.899 409.432 220.733 417.322C217.51 429.066 199.892 509.387 199.892 509.387C199.892 509.387 201.813 510.551 205.992 512.787C205.309 512.689 204.62 512.638 203.93 512.633C195.535 512.633 193.868 507.333 193.868 507.333C193.868 507.333 211.486 427.012 214.709 415.268C217.523 405.006 223.087 389.236 232.967 387.96Z" fill="#E06287"/>
</g>
<path d="M231.862 201.271C231.862 201.271 234.743 188.895 255.371 192.871C275.061 196.665 273.819 224.133 276.11 231.604C278.136 237.584 280.487 243.45 283.151 249.174C283.239 249.365 283.286 249.573 283.288 249.783C283.291 249.994 283.249 250.202 283.165 250.395C283.082 250.588 282.959 250.762 282.804 250.904C282.649 251.047 282.466 251.155 282.266 251.222C274.989 253.641 244.097 262.703 223.028 250.064C221.149 248.976 219.675 247.306 218.828 245.307C218.432 244.379 218.238 243.378 218.26 242.369C218.403 239.076 220.26 235.069 218.833 225.469C217.406 215.869 219.117 200.984 231.862 201.271Z" fill="#0B0B3A"/>
<path d="M225.8 227.81C224.95 229.071 224.364 230.49 224.077 231.983C223.79 233.476 223.808 235.012 224.13 236.498C224.274 237.936 224.945 239.269 226.015 240.24C227.085 241.212 228.477 241.751 229.922 241.755L230.574 236.355L229.142 226.855L225.8 227.81Z" fill="#FFE1BD"/>
<path d="M271.867 227.81C272.718 229.07 273.304 230.49 273.591 231.983C273.878 233.476 273.86 235.012 273.538 236.498C273.395 237.936 272.723 239.27 271.653 240.241C270.583 241.212 269.19 241.751 267.745 241.755L267.094 236.355L268.526 226.855L271.867 227.81Z" fill="#FFE1BD"/>
<path d="M275.21 332.917C274.866 337.84 274.985 342.784 275.565 347.684C276.165 353.962 278.265 376.96 278.265 376.96C274.031 378.51 269.669 379.683 265.228 380.466C254.173 382.574 235.134 376.914 217.47 370.911C217.47 370.911 223.955 354.982 224.047 341.876C224.07 340.089 224.035 338.245 223.932 336.354C223.514 332.299 222.883 328.268 222.042 324.279C221.859 323.282 221.676 322.251 221.492 321.186C220.828 317.348 220.163 313.133 219.692 308.837C219.191 304.564 218.977 300.263 219.051 295.961C217.451 284.436 220.976 273.095 220.976 273.095C220.976 273.095 235.536 267.012 241.688 266.187C241.688 266.187 252.594 263.687 260.258 266.233C270.282 269.555 275.769 271.491 280.271 273.954C280.752 274.218 283.671 282.764 282.391 290.29C280.512 301.322 277.74 316.455 276.251 325.551C275.656 329.183 275.267 331.853 275.21 332.917Z" fill="#FDD086"/>
<path opacity="0.39" d="M278.267 379.655C273.905 379.28 269.512 379.554 265.23 380.466C262.16 372.55 263.125 343.802 263.125 343.802C254.533 342.37 241.462 337.215 241.462 337.215C238.025 338.842 227.394 341.167 224.049 341.878C224.072 340.091 224.037 338.247 223.934 336.356C223.516 332.301 222.885 328.27 222.044 324.281C226.065 321.474 233.534 327.672 233.534 327.672L271.247 321.75C273.043 322.84 274.721 324.113 276.253 325.55C275.653 329.182 275.268 331.85 275.21 332.916C274.866 337.839 274.985 342.783 275.565 347.683C276.16 353.962 278.267 379.655 278.267 379.655Z" fill="#CE9006"/>
<path d="M270.237 221.601C270.237 227.134 269.126 240.001 265.655 248.522C263.754 253.366 260.329 257.459 255.895 260.184C255.849 262.395 255.803 265.305 257.35 265.546C257.797 266.531 258.358 266.783 258.06 268.33C257.017 273.83 250.614 279.912 249.044 281.435C247.474 282.958 246.489 281.435 246.489 281.435C244.663 279.325 243.094 277.007 241.815 274.527C241.024 273.038 240.406 271.686 240.015 270.735C239.731 270.024 239.622 269.256 239.698 268.494C239.773 267.732 240.032 267 240.45 266.359C242.15 266.153 241.527 262.51 241.389 260.559C238.113 258.222 235.02 254.224 232.717 249.527C228.1 240.099 227.848 228.116 227.848 221.598C227.849 215.977 230.082 210.586 234.057 206.612C238.032 202.637 243.423 200.405 249.044 200.405C254.665 200.405 260.056 202.639 264.031 206.614C268.005 210.589 270.238 215.98 270.237 221.601Z" fill="#FFE1BD"/>
<path d="M255.608 260.288C254.36 260.746 249.261 262.728 248.277 264.87C247.166 267.333 246.536 271.319 245.493 272.442C244.397 273.343 243.153 274.049 241.816 274.527C241.025 273.038 240.407 271.686 240.016 270.735C239.732 270.024 239.623 269.256 239.699 268.494C239.774 267.732 240.033 267 240.451 266.359C242.151 266.153 241.528 262.51 241.39 260.559C243.521 261.406 245.798 261.822 248.09 261.785C250.639 261.531 253.157 261.029 255.608 260.288Z" fill="#E8C5A0"/>
<path d="M263.354 316.342C264.822 316.049 266.303 315.834 267.793 315.698C268.867 315.698 265.793 325.328 265.793 325.328C265.131 324.64 264.287 324.155 263.359 323.928C262.035 323.713 262.536 316.446 262.536 316.446L263.354 316.342Z" fill="#FFE1BD"/>
<path d="M280.277 273.951C280.277 273.951 289.861 278.877 289.288 286.324C288.715 293.771 277.498 334.445 275.567 339.796C273.636 345.147 224.754 328.913 224.754 328.913C224.754 328.913 226.282 322.376 227.618 320.584C227.618 320.584 261.031 324.14 265.418 325.858C265.418 325.858 272.196 293.59 274.296 287.863C276.396 282.136 280.277 273.951 280.277 273.951Z" fill="#D69507"/>
<path d="M264.029 324.612C258.954 327.476 220.359 343.512 216.785 342.517C213.211 341.522 208.903 338.359 208.33 328.908C207.83 320.522 212.683 287.472 213.817 279.82C213.992 278.61 214.491 277.469 215.261 276.52C215.495 276.269 215.743 276.032 216.005 275.81C217.524 274.672 219.199 273.758 220.977 273.095C221.458 274.183 221.332 278.651 221.928 286.495C221.997 287.385 221.94 288.28 221.756 289.153C220.794 293.724 219.625 299.681 219.694 302.843C219.695 303.035 219.707 303.226 219.729 303.416C220.061 306.738 222.529 313.039 222.57 315.697C222.65 321.975 222.627 322.857 222.616 322.96C224.002 322.731 228.816 321.872 234.691 320.829C246.823 318.652 263.457 315.662 263.457 315.662C264.899 318.735 264.029 324.612 264.029 324.612Z" fill="#EFAF11"/>
<path d="M223.556 229.91C223.556 229.91 230.261 228.778 234.13 223.752C236.153 220.893 237.736 217.748 238.825 214.42C238.825 214.42 241.169 219.456 249.045 223.036C256.77 226.586 265.003 228.906 273.445 229.91C273.445 229.91 273.966 211.58 267.952 204.134C261.938 196.688 246.329 192.392 235.732 198.834C225.135 205.276 223.556 229.91 223.556 229.91Z" fill="#0B0B3A"/>
<path d="M240.52 266.224C240.52 266.224 241.62 276.104 246.489 281.438C246.489 281.438 244.874 280.905 241.875 284.517C241.783 284.628 241.662 284.711 241.525 284.756C241.389 284.802 241.242 284.808 241.102 284.775C240.961 284.742 240.833 284.671 240.731 284.569C240.63 284.467 240.558 284.338 240.525 284.198C239.594 280.181 236.543 270.346 238.24 266.926C238.527 266.621 238.888 266.397 239.288 266.274C239.687 266.15 240.112 266.133 240.52 266.224Z" fill="#CE9006"/>
<path d="M257.2 265.496C256.404 268.381 255.41 271.207 254.225 273.955C252.834 276.791 251.003 279.39 248.801 281.655C248.801 281.655 252.552 282.35 254.287 284.82C254.351 284.91 254.438 284.98 254.539 285.025C254.64 285.069 254.751 285.085 254.861 285.071C254.97 285.058 255.074 285.015 255.161 284.947C255.248 284.879 255.314 284.789 255.354 284.686C256.481 282.513 257.124 280.545 258.379 276.07C259.808 270.97 259.866 268.17 259.699 266.061C259.397 265.714 258.991 265.472 258.542 265.37C258.093 265.269 257.623 265.313 257.2 265.496Z" fill="#CE9006"/>
<path opacity="0.39" d="M219.878 325.609C215.968 322.274 220.634 315.909 220.302 313.683C219.97 311.457 219.981 311.083 219.695 308.838C219.444 307.04 219.456 305.214 219.73 303.419C220.062 306.741 222.53 313.042 222.571 315.7C222.651 321.978 222.628 322.86 222.617 322.963C224.003 322.734 236.947 320.415 242.824 319.372C244.197 320.096 222.51 327.854 219.878 325.609Z" fill="#CE9006"/>
<path d="M226.759 322.241L222.621 322.968C220.044 322.744 217.455 322.672 214.869 322.751C212.848 322.929 210.857 323.354 208.939 324.016C208.829 324.041 208.715 324.044 208.605 324.022C208.494 324.001 208.389 323.957 208.296 323.894C208.203 323.83 208.124 323.747 208.065 323.651C208.006 323.555 207.967 323.448 207.951 323.336C207.529 321.966 207.36 320.53 207.451 319.099C207.622 317.694 207.985 316.319 208.53 315.013C208.623 314.802 208.759 314.612 208.93 314.456C209.1 314.3 209.301 314.18 209.519 314.106C211.056 313.564 212.886 313.622 215.565 313.85C216.752 313.874 217.917 314.17 218.972 314.713C220.027 315.257 220.943 316.035 221.651 316.987L223.351 319.01C223.904 319.656 224.655 320.1 225.487 320.273L227.533 320.699C227.533 320.699 227.306 321.063 227.113 321.442C226.979 321.701 226.861 321.968 226.759 322.241Z" fill="#FFE1BD"/>
<path d="M143.707 362.455L145.624 325.432H127.502L129.418 362.455H143.707Z" fill="#FAFEFF"/>
<path d="M131.044 360.716L129.362 327.171H143.764L142.081 360.716H131.044Z" fill="#879CD7"/>
<path d="M129.914 335.375L131.044 360.716H142.081L143.212 335.375H129.914Z" fill="#4060B9"/>
<g opacity="0.5">
<path d="M132.209 357.096H135.221L133.441 330.666C133.076 327.472 130.091 327.298 130.561 330.939L132.209 357.096Z" fill="white"/>
</g>
<path d="M169.438 367.519H85.4744V372.777H169.438V367.519Z" fill="#282C2D"/>
<path d="M162.345 362.294H86.2883V366.512H162.345V362.294Z" fill="#D6D6D6"/>
<path d="M166.299 365.507H82.3353V367.52H166.299V365.507Z" fill="#525252"/>
<path d="M160.783 363.912H87.8503V364.347H160.783V363.912Z" fill="#A5A5AF"/>
<path d="M160.783 364.855H87.8503V365.29H160.783V364.855Z" fill="#A5A5AF"/>
<path d="M160.783 362.926H87.8503V363.361H160.783V362.926Z" fill="#A5A5AF"/>
<path d="M499.186 363.184H464.511V371.788H499.186V363.184Z" fill="#F1F2F2"/>
<path d="M499.187 363.184H488.244V371.788H499.187V363.184Z" fill="#A7A9AC"/>
<path d="M497.045 363.184H462.37V364.172H497.045V363.184Z" fill="#A7A9AC"/>
<path d="M497.045 370.8H462.37V371.788H497.045V370.8Z" fill="#A7A9AC"/>
<path d="M534.434 363.184H489.185V371.788H534.434V363.184Z" fill="#383838"/>
<path d="M518.257 365.185H494.049V369.788H518.257V365.185Z" fill="#A7A9AC"/>
<path d="M516.953 365.432H495.353V369.539H516.953V365.432Z" fill="#E6E7E8"/>
<path d="M528.12 369.795C529.682 369.795 530.948 368.763 530.948 367.49C530.948 366.217 529.682 365.185 528.12 365.185C526.559 365.185 525.292 366.217 525.292 367.49C525.292 368.763 526.559 369.795 528.12 369.795Z" fill="#A7A9AC"/>
<path d="M486.35 364.75H466.574V365.62H486.35V364.75Z" fill="#A7A9AC"/>
<path d="M486.35 368.1H466.574V368.969H486.35V368.1Z" fill="#A7A9AC"/>
<path d="M486.35 369.353H466.574V370.222H486.35V369.353Z" fill="#A7A9AC"/>
<path d="M485.096 366.674H472.774V367.543H485.096V366.674Z" fill="#A7A9AC"/>
<path d="M471.784 366.674H466.574V367.543H471.784V366.674Z" fill="#A7A9AC"/>
<path d="M492.657 354.784H457.982V363.388H492.657V354.784Z" fill="#F1F2F2"/>
<path d="M492.657 354.784H481.714V363.388H492.657V354.784Z" fill="#A7A9AC"/>
<path d="M490.516 354.784H455.841V355.773H490.516V354.784Z" fill="#A7A9AC"/>
<path d="M490.516 362.4H455.841V363.388H490.516V362.4Z" fill="#A7A9AC"/>
<path d="M527.905 354.784H482.656V363.388H527.905V354.784Z" fill="#58595B"/>
<path d="M511.728 356.785H487.52V361.388H511.728V356.785Z" fill="#A7A9AC"/>
<path d="M510.424 357.033H488.824V361.14H510.424V357.033Z" fill="#E6E7E8"/>
<path d="M521.591 361.396C523.153 361.396 524.419 360.364 524.419 359.091C524.419 357.818 523.153 356.786 521.591 356.786C520.03 356.786 518.763 357.818 518.763 359.091C518.763 360.364 520.03 361.396 521.591 361.396Z" fill="#A7A9AC"/>
<path d="M479.822 356.35H460.046V357.219H479.822V356.35Z" fill="#A7A9AC"/>
<path d="M479.822 359.7H460.046V360.569H479.822V359.7Z" fill="#A7A9AC"/>
<path d="M479.822 360.954H460.046V361.824H479.822V360.954Z" fill="#A7A9AC"/>
<path d="M478.566 358.275H466.244V359.144H478.566V358.275Z" fill="#A7A9AC"/>
<path d="M465.256 358.275H460.046V359.144H465.256V358.275Z" fill="#A7A9AC"/>
<path d="M499.186 346.385H464.511V354.989H499.186V346.385Z" fill="#F1F2F2"/>
<path d="M499.187 346.385H488.244V354.989H499.187V346.385Z" fill="#A7A9AC"/>
<path d="M497.045 346.385H462.37V347.373H497.045V346.385Z" fill="#A7A9AC"/>
<path d="M497.045 354.001H462.37V354.989H497.045V354.001Z" fill="#A7A9AC"/>
<path d="M534.434 346.385H489.185V354.989H534.434V346.385Z" fill="#594A42"/>
<path d="M518.257 348.386H494.049V352.989H518.257V348.386Z" fill="#A7A9AC"/>
<path d="M516.953 348.634H495.353V352.741H516.953V348.634Z" fill="#E6E7E8"/>
<path d="M528.12 352.997C529.682 352.997 530.948 351.965 530.948 350.691C530.948 349.417 529.682 348.385 528.12 348.385C526.559 348.385 525.292 349.417 525.292 350.691C525.292 351.965 526.559 352.997 528.12 352.997Z" fill="#A7A9AC"/>
<path d="M486.35 347.952H466.574V348.821H486.35V347.952Z" fill="#A7A9AC"/>
<path d="M486.35 351.301H466.574V352.171H486.35V351.301Z" fill="#A7A9AC"/>
<path d="M486.35 352.554H466.574V353.424H486.35V352.554Z" fill="#A7A9AC"/>
<path d="M485.096 349.875H472.774V350.744H485.096V349.875Z" fill="#A7A9AC"/>
<path d="M471.784 349.875H466.574V350.744H471.784V349.875Z" fill="#A7A9AC"/>
<path d="M537.429 371.557L539.346 343.076H521.224L523.14 371.557H537.429Z" fill="#FAFEFF"/>
<path d="M524.766 369.818L523.083 344.815H537.486L535.803 369.818H524.766Z" fill="#B4EFF9"/>
<path d="M523.635 353.02L524.766 369.818H535.803L536.934 353.02H523.635Z" fill="#75D9EF"/>
<g opacity="0.5">
<path d="M525.93 366.196H528.942L527.162 348.308C526.797 345.114 523.811 344.94 524.282 348.582L525.93 366.196Z" fill="white"/>
</g>
<path d="M171.444 342.626C171.822 345.742 173.037 348.697 174.959 351.178C176.882 353.659 179.44 355.573 182.362 356.717C182.384 356.723 182.406 356.721 182.426 356.712C182.446 356.702 182.462 356.686 182.47 356.665C182.479 356.645 182.48 356.622 182.473 356.601C182.465 356.58 182.451 356.563 182.431 356.552C176.672 353.84 172.403 349.097 171.597 342.625C171.585 342.525 171.432 342.525 171.444 342.625V342.626Z" fill="#81553A"/>
<path d="M181.858 333.066C183.513 336.846 184.023 341.027 183.325 345.094C182.628 349.16 180.754 352.933 177.934 355.945C177.917 355.963 177.907 355.987 177.907 356.012C177.907 356.037 177.917 356.061 177.934 356.079C177.952 356.097 177.976 356.107 178.001 356.107C178.026 356.107 178.051 356.097 178.068 356.079C180.971 353.074 182.897 349.262 183.595 345.143C184.293 341.024 183.729 336.79 181.978 332.997C181.942 332.915 181.823 332.986 181.858 333.067V333.066Z" fill="#81553A"/>
<path d="M198.498 336.636C201.598 340.577 199.858 345.118 197.898 349.136C196.167 352.682 192.643 354.349 189.209 355.844C189.182 355.859 189.161 355.884 189.151 355.914C189.141 355.944 189.142 355.976 189.155 356.005C189.167 356.034 189.19 356.057 189.218 356.07C189.247 356.083 189.279 356.085 189.309 356.076C193.714 354.512 197.018 352.062 198.837 347.714C200.461 343.834 201.492 340.042 198.649 336.491C198.564 336.385 198.419 336.535 198.501 336.639L198.498 336.636Z" fill="#81553A"/>
<path d="M196.703 349.196C198.147 349.423 199.625 349.25 200.977 348.697C202.329 348.144 203.504 347.231 204.375 346.058C204.383 346.038 204.383 346.016 204.377 345.996C204.371 345.976 204.359 345.958 204.342 345.945C204.325 345.932 204.305 345.925 204.284 345.924C204.263 345.924 204.242 345.93 204.224 345.942C203.311 347.02 202.155 347.865 200.851 348.407C199.547 348.95 198.132 349.175 196.724 349.063C196.708 349.063 196.693 349.07 196.681 349.08C196.669 349.091 196.661 349.106 196.659 349.122C196.657 349.138 196.66 349.154 196.669 349.168C196.678 349.181 196.691 349.191 196.706 349.196H196.703Z" fill="#81553A"/>
<path d="M188.678 334.407C188.196 338.657 187.032 345.972 182.732 348.068C182.711 348.08 182.695 348.1 182.687 348.123C182.679 348.146 182.68 348.171 182.69 348.194C182.699 348.216 182.717 348.234 182.739 348.245C182.761 348.256 182.786 348.258 182.809 348.251C187.347 346.566 188.438 338.451 188.838 334.407C188.848 334.307 188.69 334.307 188.679 334.407H188.678Z" fill="#81553A"/>
<path d="M163.623 340.378C163.937 342.763 165.133 344.943 166.974 346.491C168.815 348.038 171.169 348.84 173.572 348.739C173.59 348.739 173.606 348.732 173.618 348.72C173.631 348.708 173.637 348.691 173.637 348.674C173.637 348.657 173.631 348.64 173.618 348.628C173.606 348.616 173.59 348.609 173.572 348.609C171.219 348.628 168.937 347.806 167.138 346.289C165.339 344.772 164.142 342.662 163.763 340.34C163.747 340.248 163.609 340.288 163.623 340.378Z" fill="#81553A"/>
<path d="M203.735 351.884H167.788C167.788 351.884 164.873 358.904 164.873 360.639C164.873 362.374 168.844 365.925 173.119 365.925H198.404C202.679 365.925 206.65 362.373 206.65 360.639C206.65 358.905 203.735 351.884 203.735 351.884Z" fill="#FDD086"/>
<path d="M199.913 367.731H171.609L172.599 365.925H198.924L199.913 367.731Z" fill="#EFAF11"/>
<path d="M175.8 360.639C175.8 358.905 178.714 351.884 178.714 351.884H167.788C167.788 351.884 164.873 358.904 164.873 360.639C164.873 362.374 168.844 365.925 173.119 365.925H184.046C179.767 365.925 175.8 362.373 175.8 360.639Z" fill="#EFAF11"/>
<g style="mix-blend-mode:multiply" opacity="0.55">
<path d="M172.599 365.925L171.61 367.731H182.537L183.526 365.925H172.599Z" fill="#EFAF11"/>
</g>
<path d="M184.417 338.818C185.234 338.179 188.455 337.037 190.606 338.395C191.878 339.158 192.949 340.215 193.727 341.477C194.505 342.74 194.969 344.171 195.078 345.65C193.131 346.099 191.133 346.29 189.136 346.218C182.407 345.69 182.901 340.003 184.417 338.818Z" fill="#709E3E"/>
<path d="M200.798 335.237C201.341 334.771 203.524 333.881 205.05 334.748C205.951 335.233 206.723 335.927 207.299 336.772C207.876 337.618 208.241 338.589 208.363 339.605C207.036 339.976 205.666 340.172 204.287 340.186C199.633 340.037 199.791 336.103 200.798 335.237Z" fill="#709E3E"/>
<path d="M199.322 332.916C198.856 332.7 198.343 332.607 197.831 332.645C197.319 332.683 196.825 332.85 196.395 333.132C195.851 333.581 195.422 334.153 195.143 334.801C194.865 335.449 194.746 336.154 194.795 336.858C195.737 336.939 196.686 336.895 197.616 336.727C200.728 336.025 200.112 333.373 199.322 332.916Z" fill="#709E3E"/>
<path d="M167.354 336.256C166.644 335.923 165.852 335.802 165.074 335.91C164.631 335.993 164.211 336.173 163.844 336.436C163.478 336.699 163.173 337.04 162.953 337.433C162.732 337.827 162.6 338.264 162.566 338.714C162.532 339.164 162.598 339.616 162.757 340.038C162.997 340.46 163.344 340.811 163.762 341.056C164.181 341.302 164.656 341.434 165.141 341.438C166.978 341.669 169.179 340.231 171.009 339.638C170.192 338.143 168.908 336.955 167.354 336.256Z" fill="#709E3E"/>
<path d="M172.128 340.99C171.748 341.184 171.425 341.473 171.19 341.83C170.956 342.186 170.817 342.597 170.789 343.023C170.891 343.54 171.173 344.005 171.585 344.334C171.996 344.664 172.511 344.837 173.038 344.823C174.091 344.873 177.851 343.845 179.454 344.668C176.667 339.385 173.848 339.902 172.128 340.99Z" fill="#709E3E"/>
<path d="M203.828 342.832C203.5 342.96 203.208 343.166 202.977 343.433C202.747 343.699 202.584 344.017 202.503 344.36C202.465 344.779 202.579 345.198 202.826 345.54C203.072 345.882 203.433 346.123 203.843 346.219C204.605 346.419 207.532 346.094 208.565 347.027C208.567 343.022 205.272 342.16 203.828 342.832Z" fill="#709E3E"/>
<path d="M183.831 347.996C184.688 347.749 187.931 347.467 189.272 349.204C191.722 352.372 189.616 355.104 189.344 356.07C187.622 355.814 185.938 355.342 184.334 354.663C179.013 352.151 180.916 348.442 183.831 347.996Z" fill="#709E3E"/>
<path d="M172.089 348.562C171.308 348.3 168.666 348.338 167.572 350.016C166.911 351.031 166.488 352.183 166.338 353.385C166.187 354.587 166.312 355.807 166.703 356.954C168.219 356.744 169.696 356.317 171.09 355.686C175.688 353.335 173.537 349.049 172.089 348.562Z" fill="#709E3E"/>
<path d="M180.658 332.74C181.062 332.802 181.445 332.962 181.773 333.206C182.101 333.45 182.365 333.771 182.54 334.14C182.683 334.608 182.652 335.112 182.452 335.56C182.253 336.007 181.9 336.367 181.456 336.575C180.633 336.987 177.212 337.352 176.256 338.664C176.382 332.846 178.847 332.34 180.658 332.74Z" fill="#709E3E"/>
<g opacity="0.62">
<path d="M162.601 338.413C165.448 338.193 168.305 338.69 170.909 339.859C170.953 339.878 170.991 339.815 170.947 339.794C168.344 338.577 165.462 338.079 162.601 338.351C162.562 338.351 162.561 338.416 162.601 338.413Z" fill="#93BC6C"/>
<path d="M163.594 337.751C164.642 337.42 165.746 337.307 166.839 337.419C167.931 337.531 168.99 337.865 169.948 338.401C169.957 338.405 169.967 338.406 169.976 338.404C169.985 338.401 169.993 338.395 169.997 338.387C170.002 338.378 170.004 338.369 170.001 338.359C169.999 338.35 169.993 338.342 169.985 338.337C169.036 337.752 167.966 337.39 166.856 337.279C165.746 337.168 164.625 337.31 163.578 337.695C163.572 337.698 163.567 337.703 163.565 337.709C163.562 337.715 163.561 337.722 163.563 337.729C163.565 337.735 163.569 337.741 163.574 337.745C163.58 337.749 163.587 337.751 163.593 337.75L163.594 337.751Z" fill="#93BC6C"/>
<path d="M163.119 338.78C164.019 340.765 167.273 340.493 168.987 340.041C169.002 340.037 169.014 340.027 169.021 340.015C169.028 340.002 169.03 339.986 169.026 339.972C169.022 339.958 169.013 339.946 169 339.938C168.987 339.931 168.972 339.929 168.957 339.933C167.291 340.345 164.071 340.659 163.177 338.746C163.158 338.706 163.101 338.741 163.118 338.78H163.119Z" fill="#93BC6C"/>
<path d="M171.594 341.773C172.905 341.208 174.379 341.149 175.731 341.609C177.083 342.069 178.215 343.014 178.909 344.262C178.913 344.269 178.92 344.274 178.928 344.277C178.936 344.279 178.945 344.278 178.952 344.273C178.959 344.269 178.964 344.263 178.966 344.255C178.969 344.247 178.967 344.238 178.963 344.231C178.287 342.946 177.143 341.969 175.768 341.501C174.393 341.034 172.891 341.111 171.571 341.717C171.564 341.721 171.559 341.727 171.556 341.734C171.554 341.741 171.554 341.749 171.557 341.757C171.56 341.764 171.566 341.77 171.573 341.773C171.58 341.776 171.588 341.777 171.595 341.774L171.594 341.773Z" fill="#93BC6C"/>
<path d="M171.949 342.136C174.215 342.414 176.426 343.028 178.51 343.958C178.532 343.968 178.552 343.936 178.529 343.925C176.465 342.916 174.236 342.289 171.948 342.073C171.907 342.073 171.908 342.132 171.948 342.136H171.949Z" fill="#93BC6C"/>
<path d="M171.223 342.75C173.341 343.979 175.783 344.534 178.223 344.34C178.282 344.335 178.283 344.24 178.223 344.247C175.8 344.391 173.384 343.859 171.245 342.709C171.24 342.707 171.234 342.707 171.229 342.709C171.223 342.71 171.218 342.714 171.216 342.719C171.213 342.724 171.212 342.73 171.213 342.736C171.214 342.741 171.217 342.746 171.221 342.75H171.223Z" fill="#93BC6C"/>
<path d="M176.467 338.409C177.691 336.423 179.422 334.801 181.483 333.709C181.496 333.702 181.504 333.69 181.508 333.676C181.512 333.663 181.51 333.648 181.502 333.636C181.495 333.624 181.484 333.615 181.47 333.611C181.456 333.608 181.442 333.61 181.429 333.617C179.304 334.647 177.551 336.31 176.41 338.377C176.408 338.381 176.407 338.385 176.406 338.389C176.406 338.393 176.406 338.398 176.407 338.402C176.409 338.41 176.414 338.417 176.422 338.422C176.429 338.426 176.438 338.427 176.447 338.425C176.455 338.423 176.462 338.417 176.466 338.41L176.467 338.409Z" fill="#93BC6C"/>
<path d="M178.609 337.396C180.289 336.749 181.678 335.516 182.519 333.925C182.524 333.915 182.524 333.904 182.521 333.894C182.518 333.884 182.511 333.875 182.502 333.87C182.493 333.865 182.482 333.863 182.471 333.865C182.461 333.867 182.452 333.873 182.445 333.882C181.571 335.423 180.22 336.638 178.594 337.343C178.561 337.357 178.575 337.41 178.609 337.396Z" fill="#93BC6C"/>
<path d="M176.52 336.996C176.803 335.948 177.41 335.016 178.254 334.333C179.098 333.651 180.136 333.253 181.22 333.196C181.231 333.194 181.242 333.189 181.249 333.18C181.256 333.172 181.26 333.161 181.26 333.15C181.26 333.138 181.256 333.127 181.249 333.119C181.242 333.11 181.231 333.105 181.22 333.103C180.11 333.137 179.041 333.534 178.179 334.235C177.316 334.936 176.708 335.901 176.448 336.981C176.446 336.99 176.447 337 176.452 337.008C176.456 337.016 176.464 337.022 176.473 337.025C176.482 337.027 176.491 337.026 176.5 337.021C176.508 337.017 176.514 337.009 176.516 337L176.52 336.996Z" fill="#93BC6C"/>
<path d="M195.167 336.93C196.084 335.471 197.363 334.275 198.88 333.458C198.893 333.451 198.901 333.439 198.905 333.425C198.908 333.412 198.906 333.397 198.899 333.385C198.892 333.373 198.88 333.364 198.867 333.36C198.853 333.357 198.839 333.359 198.826 333.366C197.246 334.121 195.945 335.357 195.111 336.897C195.109 336.901 195.108 336.905 195.107 336.909C195.107 336.913 195.107 336.918 195.108 336.922C195.11 336.93 195.115 336.937 195.123 336.942C195.13 336.946 195.139 336.947 195.147 336.945C195.156 336.943 195.163 336.937 195.167 336.93Z" fill="#93BC6C"/>
<path d="M196.745 336.181C197.995 335.709 199.027 334.794 199.645 333.61C199.65 333.6 199.65 333.589 199.647 333.579C199.644 333.569 199.637 333.56 199.628 333.555C199.619 333.55 199.608 333.548 199.597 333.55C199.587 333.552 199.578 333.558 199.571 333.567C198.92 334.701 197.925 335.597 196.729 336.127C196.696 336.141 196.711 336.195 196.745 336.181Z" fill="#93BC6C"/>
<path d="M195.205 335.884C195.417 335.111 195.866 334.424 196.489 333.921C197.112 333.417 197.878 333.122 198.678 333.078C198.69 333.076 198.7 333.071 198.707 333.062C198.714 333.054 198.719 333.043 198.719 333.032C198.719 333.02 198.714 333.009 198.707 333.001C198.7 332.992 198.69 332.987 198.678 332.985C197.853 333.007 197.058 333.301 196.418 333.822C195.777 334.343 195.327 335.062 195.137 335.865C195.136 335.869 195.136 335.874 195.136 335.879C195.137 335.883 195.138 335.888 195.141 335.892C195.145 335.9 195.153 335.906 195.162 335.909C195.171 335.911 195.181 335.91 195.189 335.905C195.197 335.901 195.203 335.893 195.205 335.884Z" fill="#93BC6C"/>
<path d="M166.982 356.452C168.477 353.605 170.53 351.089 173.018 349.052C173.024 349.045 173.027 349.037 173.027 349.028C173.027 349.019 173.024 349.011 173.019 349.004C173.013 348.997 173.006 348.992 172.998 348.99C172.989 348.988 172.98 348.989 172.972 348.992C170.386 350.943 168.311 353.493 166.927 356.422C166.909 356.459 166.964 356.492 166.983 356.455L166.982 356.452Z" fill="#93BC6C"/>
<path d="M166.667 356.565C166.399 354.783 166.828 352.966 167.865 351.493C168.902 350.019 170.467 349.003 172.235 348.654C172.246 348.651 172.254 348.644 172.26 348.634C172.265 348.625 172.266 348.613 172.263 348.603C172.26 348.592 172.254 348.583 172.244 348.578C172.235 348.572 172.224 348.571 172.213 348.573C170.413 348.905 168.815 349.931 167.763 351.429C166.711 352.928 166.291 354.78 166.591 356.586C166.598 356.637 166.675 356.615 166.668 356.565H166.667Z" fill="#93BC6C"/>
<path d="M167.307 356.387C168.931 356.254 170.453 355.538 171.59 354.37C172.727 353.203 173.403 351.664 173.494 350.037C173.494 349.991 173.43 349.994 173.425 350.037C173.299 351.633 172.618 353.134 171.501 354.28C170.383 355.426 168.899 356.145 167.307 356.311C167.259 356.316 167.258 356.392 167.307 356.387Z" fill="#93BC6C"/>
<path d="M182.667 348.679C184.068 349.306 185.304 350.249 186.278 351.434C187.251 352.62 187.937 354.016 188.279 355.511C188.282 355.519 188.287 355.526 188.295 355.531C188.302 355.535 188.311 355.536 188.319 355.534C188.328 355.532 188.335 355.526 188.339 355.519C188.343 355.511 188.345 355.502 188.342 355.494C188.022 353.98 187.342 352.566 186.359 351.371C185.377 350.176 184.121 349.236 182.697 348.629C182.664 348.614 182.634 348.663 182.668 348.679H182.667Z" fill="#93BC6C"/>
<path d="M183.049 348.836C186.149 349.297 189.616 350.383 189.479 354.184C189.479 354.195 189.484 354.206 189.492 354.214C189.5 354.222 189.51 354.226 189.521 354.226C189.532 354.226 189.543 354.222 189.551 354.214C189.559 354.206 189.563 354.195 189.563 354.184C189.863 350.344 186.163 349.204 183.063 348.774C183.022 348.768 183.004 348.83 183.046 348.837L183.049 348.836Z" fill="#93BC6C"/>
<path d="M182.885 349.358C182.251 352.267 185.154 353.897 187.468 354.715C187.476 354.718 187.484 354.717 187.491 354.714C187.498 354.711 187.504 354.705 187.507 354.698C187.51 354.69 187.51 354.682 187.507 354.675C187.505 354.668 187.499 354.662 187.492 354.658C185.338 353.658 182.33 352.319 182.952 349.376C182.961 349.333 182.895 349.314 182.885 349.358Z" fill="#93BC6C"/>
<path d="M184.211 339.914C184.277 344.137 190.42 345.461 193.711 345.458C193.719 345.458 193.727 345.455 193.733 345.449C193.738 345.444 193.741 345.436 193.741 345.428C193.741 345.42 193.738 345.412 193.733 345.407C193.727 345.401 193.719 345.398 193.711 345.398C190.424 345.28 184.421 344.118 184.245 339.914C184.245 339.909 184.244 339.905 184.24 339.902C184.237 339.899 184.233 339.897 184.228 339.897C184.224 339.897 184.22 339.899 184.216 339.902C184.213 339.905 184.211 339.909 184.211 339.914Z" fill="#93BC6C"/>
<path d="M185.025 340.429C187.916 342.482 191.047 344.174 194.349 345.466C194.393 345.483 194.412 345.412 194.369 345.395C191.079 344.095 187.951 342.417 185.048 340.395C185.025 340.379 185.003 340.417 185.026 340.433L185.025 340.429Z" fill="#93BC6C"/>
<path d="M185.098 339.763C188.772 340.449 192.089 342.403 194.47 345.283C194.513 345.333 194.582 345.261 194.542 345.211C192.183 342.281 188.826 340.323 185.114 339.711C185.078 339.705 185.062 339.76 185.099 339.766L185.098 339.763Z" fill="#93BC6C"/>
<path d="M185.497 338.75C190.167 338.484 194.163 340.243 194.677 345.366C194.679 345.374 194.683 345.382 194.689 345.387C194.696 345.392 194.704 345.395 194.712 345.395C194.72 345.395 194.728 345.392 194.734 345.387C194.741 345.382 194.745 345.374 194.746 345.366C194.737 344.371 194.508 343.39 194.076 342.494C193.644 341.597 193.019 340.807 192.246 340.18C190.294 338.602 187.89 338.52 185.492 338.689C185.453 338.689 185.452 338.753 185.492 338.751L185.497 338.75Z" fill="#93BC6C"/>
<path d="M200.331 336.207C200.665 339.227 205.161 339.807 207.54 339.607C207.548 339.607 207.556 339.604 207.562 339.598C207.567 339.593 207.57 339.585 207.57 339.577C207.57 339.569 207.567 339.561 207.562 339.556C207.556 339.55 207.548 339.547 207.54 339.547C205.155 339.624 200.807 339.211 200.364 336.204C200.363 336.2 200.361 336.197 200.358 336.195C200.355 336.192 200.352 336.191 200.348 336.191C200.344 336.191 200.34 336.192 200.337 336.195C200.334 336.197 200.332 336.2 200.331 336.204V336.207Z" fill="#93BC6C"/>
<path d="M200.951 336.531C203.17 337.827 205.538 338.85 208.002 339.578C208.011 339.58 208.021 339.578 208.029 339.573C208.037 339.568 208.043 339.561 208.045 339.552C208.048 339.543 208.047 339.533 208.042 339.525C208.038 339.517 208.031 339.51 208.022 339.507C205.568 338.769 203.203 337.758 200.974 336.493C200.969 336.491 200.964 336.49 200.958 336.492C200.953 336.493 200.948 336.497 200.946 336.502C200.943 336.507 200.942 336.512 200.943 336.518C200.944 336.523 200.947 336.528 200.951 336.531Z" fill="#93BC6C"/>
<path d="M200.978 336.062C203.662 336.343 206.168 337.536 208.078 339.442C208.088 339.451 208.101 339.455 208.114 339.455C208.127 339.454 208.139 339.449 208.148 339.44C208.157 339.431 208.163 339.418 208.163 339.405C208.164 339.392 208.159 339.38 208.15 339.37C206.252 337.412 203.703 336.215 200.983 336.005C200.946 336.005 200.947 336.059 200.983 336.063L200.978 336.062Z" fill="#93BC6C"/>
<path d="M201.21 335.327C204.523 334.905 207.527 335.872 208.233 339.487C208.236 339.495 208.241 339.501 208.248 339.505C208.255 339.51 208.263 339.511 208.271 339.51C208.279 339.509 208.286 339.505 208.292 339.5C208.297 339.494 208.301 339.486 208.301 339.478C208.244 338.769 208.026 338.082 207.664 337.469C207.301 336.856 206.804 336.334 206.21 335.942C204.687 335.09 202.897 334.848 201.202 335.266C201.195 335.268 201.189 335.272 201.184 335.279C201.18 335.285 201.178 335.293 201.179 335.3C201.18 335.308 201.184 335.314 201.19 335.319C201.195 335.324 201.203 335.327 201.21 335.327Z" fill="#93BC6C"/>
<path d="M202.56 344.532C202.718 344.801 202.927 345.035 203.176 345.222C203.425 345.409 203.709 345.544 204.011 345.619C204.623 345.777 205.273 345.699 205.896 345.808C206.813 345.982 207.688 346.332 208.471 346.84C208.473 346.84 208.474 346.84 208.475 346.84C208.477 346.839 208.478 346.839 208.478 346.837C208.479 346.836 208.479 346.835 208.479 346.834C208.479 346.832 208.478 346.831 208.477 346.83C207.59 346.23 206.577 345.843 205.515 345.7C204.404 345.565 203.24 345.615 202.598 344.511C202.595 344.506 202.591 344.503 202.585 344.501C202.58 344.5 202.574 344.501 202.569 344.504C202.564 344.506 202.56 344.511 202.559 344.517C202.558 344.522 202.558 344.528 202.561 344.533L202.56 344.532Z" fill="#93BC6C"/>
<path d="M202.961 343.981C203.994 343.994 205.011 344.239 205.937 344.699C206.862 345.158 207.672 345.819 208.307 346.634C208.31 346.636 208.313 346.637 208.317 346.637C208.32 346.637 208.323 346.636 208.326 346.634C208.329 346.632 208.331 346.629 208.331 346.626C208.332 346.623 208.332 346.619 208.33 346.616C207.709 345.778 206.899 345.098 205.966 344.632C205.033 344.165 204.003 343.925 202.96 343.931C202.954 343.931 202.947 343.934 202.943 343.938C202.938 343.943 202.935 343.949 202.935 343.956C202.935 343.963 202.938 343.969 202.943 343.974C202.947 343.978 202.954 343.981 202.96 343.981H202.961Z" fill="#93BC6C"/>
<path d="M203.585 343.619C204.058 343.453 204.56 343.388 205.06 343.429C205.559 343.47 206.044 343.615 206.484 343.856C206.923 344.097 207.307 344.427 207.61 344.826C207.913 345.225 208.129 345.683 208.243 346.171C208.245 346.178 208.25 346.184 208.257 346.188C208.263 346.192 208.271 346.193 208.278 346.191C208.285 346.189 208.291 346.184 208.295 346.177C208.298 346.171 208.299 346.163 208.297 346.156C208.189 345.657 207.974 345.187 207.668 344.778C207.362 344.369 206.972 344.03 206.524 343.785C206.076 343.539 205.581 343.393 205.072 343.355C204.562 343.317 204.051 343.389 203.571 343.566C203.538 343.577 203.552 343.63 203.586 343.619H203.585Z" fill="#93BC6C"/>
</g>
<path d="M164.142 342.23C163.399 341.591 160.47 340.449 158.513 341.808C157.288 342.684 156.261 343.808 155.501 345.109C154.74 346.409 154.263 347.855 154.101 349.353C155.996 349.706 157.93 349.8 159.85 349.631C165.967 349.102 165.52 343.415 164.142 342.23Z" fill="#93BC6C"/>
<path d="M198.096 335.843C197.472 335.411 195.122 334.765 193.723 335.969C192.876 336.697 192.206 337.609 191.764 338.635C191.322 339.66 191.119 340.773 191.17 341.889C192.567 342.091 193.985 342.091 195.381 341.889C200.057 340.996 199.255 336.646 198.096 335.843Z" fill="#93BC6C"/>
<path d="M183.35 329.106C183.022 329.234 182.73 329.441 182.499 329.707C182.268 329.973 182.105 330.292 182.024 330.635C181.986 331.054 182.101 331.473 182.347 331.815C182.593 332.156 182.955 332.397 183.364 332.494C184.126 332.694 187.053 332.369 188.087 333.302C188.088 329.296 184.794 328.434 183.35 329.106Z" fill="#93BC6C"/>
<path d="M197.043 348.296C197.737 347.908 200.512 346.984 202.099 348.146C204.992 350.266 203.787 352.988 203.776 353.854C202.203 354.007 200.617 353.971 199.052 353.746C193.794 352.786 194.591 349.29 197.043 348.296Z" fill="#93BC6C"/>
<path d="M154.467 349.104C155.694 348.348 156.817 347.437 157.809 346.392C159.385 344.847 161.259 343.641 163.317 342.847C163.369 342.827 163.349 342.747 163.293 342.762C159.541 343.917 157.684 347.182 154.419 349.023C154.414 349.026 154.409 349.03 154.406 349.035C154.402 349.04 154.399 349.046 154.397 349.052C154.396 349.058 154.395 349.064 154.396 349.07C154.397 349.077 154.399 349.083 154.402 349.088C154.406 349.093 154.41 349.098 154.415 349.102C154.42 349.106 154.425 349.108 154.431 349.11C154.437 349.112 154.444 349.112 154.45 349.111C154.456 349.11 154.462 349.108 154.467 349.105V349.104Z" fill="#709E3E"/>
<path d="M154.467 348.696C155.345 347.224 156.313 345.808 157.367 344.457C158.952 342.701 160.825 342.278 163.122 342.357C163.203 342.357 163.222 342.225 163.142 342.212C158.415 341.474 156.553 345.242 154.423 348.667C154.421 348.673 154.421 348.68 154.423 348.686C154.425 348.692 154.429 348.697 154.435 348.7C154.44 348.703 154.447 348.705 154.453 348.703C154.46 348.702 154.465 348.699 154.469 348.694L154.467 348.696Z" fill="#709E3E"/>
<path d="M155.651 349.307C159.198 349.128 165.174 348.389 164.187 343.384C164.182 343.369 164.172 343.356 164.158 343.347C164.144 343.339 164.128 343.335 164.112 343.337C164.096 343.34 164.081 343.347 164.07 343.359C164.059 343.371 164.052 343.386 164.051 343.402C164.069 344.953 163.814 346.571 162.496 347.568C160.736 348.9 157.753 349.068 155.65 349.212C155.59 349.212 155.589 349.312 155.65 349.306L155.651 349.307Z" fill="#709E3E"/>
<path d="M154.836 349.174C156.666 348.574 158.612 348.213 160.378 347.427C162.119 346.652 162.857 345.142 163.733 343.537C163.74 343.526 163.742 343.513 163.738 343.501C163.735 343.489 163.727 343.478 163.716 343.472C163.705 343.466 163.693 343.464 163.68 343.467C163.668 343.47 163.658 343.478 163.651 343.489C162.474 345.439 161.543 346.853 159.316 347.682C157.842 348.231 156.301 348.582 154.816 349.082C154.761 349.101 154.784 349.189 154.84 349.17L154.836 349.174Z" fill="#709E3E"/>
<path d="M183.11 330.213C184.847 330.657 186.431 331.566 187.689 332.843C187.695 332.849 187.703 332.852 187.711 332.852C187.72 332.852 187.728 332.849 187.733 332.843C187.739 332.837 187.742 332.829 187.742 332.821C187.742 332.813 187.739 332.805 187.733 332.799C186.511 331.459 184.898 330.538 183.123 330.167C183.117 330.166 183.111 330.167 183.106 330.17C183.101 330.173 183.098 330.178 183.096 330.184C183.094 330.19 183.095 330.196 183.098 330.201C183.1 330.207 183.105 330.211 183.11 330.213Z" fill="#709E3E"/>
<path d="M182.435 330.715C182.53 330.951 182.684 331.158 182.883 331.317C183.081 331.476 183.317 331.582 183.568 331.623C184.647 331.982 185.74 332.323 186.841 332.602C186.846 332.603 186.85 332.604 186.855 332.603C186.86 332.603 186.864 332.601 186.868 332.599C186.872 332.597 186.876 332.593 186.879 332.59C186.881 332.586 186.884 332.582 186.885 332.578C186.886 332.573 186.886 332.568 186.886 332.564C186.885 332.559 186.884 332.555 186.882 332.551C186.879 332.547 186.876 332.543 186.873 332.54C186.869 332.537 186.865 332.535 186.86 332.534C186.16 332.279 185.46 332.061 184.746 331.846C184.032 331.631 182.826 331.472 182.528 330.689C182.506 330.631 182.414 330.655 182.435 330.715Z" fill="#709E3E"/>
<path d="M183.141 329.902C184.125 329.736 185.135 329.918 185.998 330.417C186.862 330.915 187.525 331.699 187.873 332.633C187.889 332.669 187.945 332.643 187.935 332.607C187.623 331.625 186.956 330.794 186.065 330.277C185.173 329.759 184.121 329.592 183.113 329.807C183.047 329.819 183.076 329.917 183.14 329.907L183.141 329.902Z" fill="#709E3E"/>
<path d="M191.672 341.734C193.804 340.307 195.855 338.734 197.901 337.183C197.905 337.18 197.908 337.177 197.909 337.172C197.909 337.168 197.909 337.163 197.906 337.159C197.904 337.155 197.901 337.153 197.896 337.151C197.892 337.15 197.887 337.15 197.883 337.152C195.683 338.478 193.765 340.243 191.649 341.694C191.625 341.711 191.649 341.75 191.672 341.733V341.734Z" fill="#709E3E"/>
<path d="M192.226 341.65C194.589 341.289 197.274 339.818 198.211 337.502C198.213 337.495 198.212 337.487 198.208 337.481C198.205 337.474 198.199 337.469 198.192 337.466C198.185 337.463 198.178 337.463 198.171 337.465C198.164 337.467 198.157 337.472 198.153 337.478C197.563 338.589 196.717 339.545 195.685 340.265C194.653 340.986 193.465 341.451 192.218 341.623C192.2 341.623 192.208 341.653 192.225 341.65H192.226Z" fill="#709E3E"/>
<path d="M191.567 341.432C192.148 340.309 192.95 339.316 193.925 338.512C194.901 337.708 196.029 337.11 197.242 336.755C197.251 336.753 197.258 336.747 197.262 336.74C197.266 336.732 197.268 336.723 197.265 336.715C197.263 336.707 197.258 336.7 197.25 336.695C197.243 336.691 197.234 336.69 197.225 336.692C195.988 337.015 194.835 337.603 193.847 338.414C192.858 339.226 192.057 340.242 191.498 341.392C191.494 341.401 191.493 341.412 191.496 341.421C191.499 341.431 191.506 341.439 191.514 341.444C191.523 341.449 191.533 341.451 191.543 341.448C191.553 341.446 191.562 341.44 191.567 341.432Z" fill="#709E3E"/>
<path d="M192.688 341.736C194.33 341.865 195.97 341.455 197.357 340.568C197.823 340.306 198.18 339.888 198.366 339.387C198.551 338.886 198.553 338.336 198.37 337.834C198.355 337.799 198.298 337.824 198.309 337.86C199.333 340.989 194.719 341.642 192.688 341.693C192.683 341.693 192.677 341.695 192.673 341.699C192.669 341.703 192.667 341.709 192.667 341.715C192.667 341.72 192.669 341.726 192.673 341.73C192.677 341.734 192.683 341.736 192.688 341.736Z" fill="#709E3E"/>
<path d="M191.381 340.996C192.072 338.221 193.868 335.962 196.991 336.158C197.053 336.158 197.05 336.07 196.991 336.064C193.863 335.709 191.937 338.219 191.31 340.977C191.309 340.986 191.31 340.996 191.315 341.004C191.32 341.011 191.328 341.017 191.337 341.02C191.346 341.022 191.355 341.021 191.363 341.017C191.372 341.013 191.378 341.006 191.381 340.997V340.996Z" fill="#709E3E"/>
<path d="M197.815 348.596C199.935 349.982 201.831 351.684 203.435 353.643C203.459 353.67 203.497 353.631 203.475 353.603C201.889 351.62 199.984 349.914 197.838 348.557C197.833 348.555 197.828 348.555 197.823 348.557C197.818 348.559 197.813 348.562 197.811 348.567C197.808 348.572 197.807 348.577 197.808 348.582C197.809 348.588 197.811 348.592 197.815 348.596Z" fill="#709E3E"/>
<path d="M198.073 348.431C199.369 348.618 200.582 349.181 201.561 350.051C202.54 350.92 203.243 352.057 203.582 353.322C203.585 353.331 203.59 353.338 203.598 353.342C203.606 353.346 203.615 353.347 203.623 353.345C203.632 353.343 203.639 353.337 203.643 353.329C203.648 353.322 203.649 353.313 203.646 353.304C203.329 352.016 202.627 350.856 201.633 349.978C200.64 349.099 199.402 348.545 198.085 348.388C198.057 348.388 198.045 348.426 198.073 348.431Z" fill="#709E3E"/>
<path d="M198.622 348.27C199.298 348.182 199.985 348.235 200.64 348.424C201.295 348.613 201.903 348.935 202.428 349.37C202.841 349.793 203.158 350.3 203.356 350.856C203.555 351.413 203.631 352.005 203.579 352.594C203.579 352.603 203.583 352.612 203.59 352.619C203.596 352.626 203.605 352.63 203.615 352.63C203.624 352.63 203.633 352.626 203.64 352.619C203.647 352.612 203.65 352.603 203.65 352.594C203.721 351.994 203.653 351.386 203.453 350.816C203.252 350.246 202.924 349.729 202.492 349.306C201.959 348.866 201.339 348.543 200.672 348.357C200.006 348.171 199.308 348.128 198.623 348.229C198.598 348.229 198.597 348.272 198.623 348.269L198.622 348.27Z" fill="#709E3E"/>
<path d="M197.616 348.626C196.005 350.92 201.777 353.341 203.257 353.657C203.267 353.658 203.277 353.656 203.285 353.65C203.293 353.645 203.299 353.637 203.302 353.627C203.304 353.618 203.304 353.608 203.3 353.599C203.295 353.59 203.288 353.583 203.279 353.579C201.879 353.188 196.21 350.925 197.666 348.655C197.686 348.623 197.637 348.596 197.616 348.626Z" fill="#709E3E"/>
<path d="M196.973 348.855C196.746 349.012 196.556 349.218 196.419 349.458C196.282 349.698 196.2 349.966 196.18 350.242C196.161 350.518 196.203 350.794 196.304 351.052C196.406 351.309 196.564 351.54 196.766 351.728C198.013 353.162 200.373 353.669 202.179 353.662C202.191 353.662 202.203 353.657 202.211 353.649C202.22 353.64 202.224 353.629 202.224 353.617C202.224 353.605 202.22 353.594 202.211 353.585C202.203 353.577 202.191 353.572 202.179 353.572C201.061 353.538 199.955 353.321 198.906 352.93C197.553 352.398 194.706 350.422 197.001 348.902C197.004 348.9 197.007 348.898 197.009 348.895C197.011 348.892 197.013 348.889 197.014 348.885C197.015 348.882 197.015 348.878 197.014 348.875C197.014 348.871 197.013 348.868 197.011 348.865C197.009 348.861 197.007 348.859 197.004 348.857C197.001 348.854 196.998 348.853 196.994 348.852C196.991 348.851 196.987 348.851 196.983 348.851C196.98 348.852 196.976 348.853 196.973 348.855Z" fill="#709E3E"/>
<path d="M114.056 378.908H104.03V576.107H114.056V378.908Z" fill="#4C2311"/>
<path d="M526.645 378.908H516.618V576.107H526.645V378.908Z" fill="#4C2311"/>
<path d="M546.984 373.164H83.6893V381.863H546.984V373.164Z" fill="#4C2311"/>
<path d="M551.844 371.425H78.8303V375.324H551.844V371.425Z" fill="#66341B"/>
<path d="M260.999 369.413H161.01V371.425H260.999V369.413Z" fill="#525252"/>
<path d="M256.776 366.816C256.776 366.816 217.251 364.476 211.44 368.555C203.467 364.921 165.231 366.816 165.231 366.816V369.416H256.776V366.816Z" fill="#D6D6D6"/>
<path d="M256.776 368.555C252.985 368.255 249.19 368.01 245.394 367.806C241.598 367.602 237.801 367.406 234.001 367.306C230.201 367.206 226.401 367.171 222.601 367.306C220.701 367.379 218.809 367.497 216.93 367.724C215.993 367.832 215.061 367.987 214.139 368.19C213.231 368.364 212.358 368.691 211.559 369.157L211.459 369.225L211.345 369.177C210.463 368.821 209.548 368.553 208.613 368.377C207.673 368.19 206.719 368.058 205.764 367.942C203.849 367.726 201.921 367.609 199.992 367.529C196.133 367.374 192.265 367.387 188.401 367.463C184.537 367.539 180.671 367.693 176.809 367.888C172.947 368.063 169.086 368.285 165.226 368.554C172.931 367.86 180.657 367.372 188.394 367.173C192.262 367.073 196.134 367.034 200.006 367.165C201.942 367.233 203.877 367.337 205.806 367.543C206.771 367.653 207.735 367.781 208.692 367.965C209.662 368.137 210.61 368.41 211.522 368.781L211.309 368.801C212.156 368.307 213.082 367.962 214.045 367.783C214.982 367.583 215.928 367.432 216.88 367.328C218.78 367.111 220.68 367.005 222.586 366.944C226.394 366.833 230.2 366.891 234.003 367.016C241.615 367.267 249.207 367.811 256.776 368.555Z" fill="#A5A5AF"/>
<path d="M256.776 368.555C252.994 368.453 249.211 368.375 245.427 368.322C241.645 368.248 237.862 368.189 234.079 368.164C230.296 368.139 226.513 368.148 222.733 368.232C220.843 368.277 218.954 368.34 217.069 368.453C216.127 368.512 215.185 368.576 214.251 368.683C213.325 368.758 212.408 368.926 211.514 369.183L211.455 369.203L211.395 369.191C210.462 369.034 209.519 368.934 208.573 368.891C207.621 368.827 206.665 368.791 205.71 368.758C203.798 368.694 201.884 368.664 199.97 368.643C196.142 368.608 192.312 368.621 188.482 368.653L165.504 368.984L176.989 368.593L188.479 368.363C192.309 368.306 196.14 368.263 199.973 368.278C201.889 368.286 203.805 368.304 205.722 368.356C206.68 368.383 207.639 368.413 208.598 368.471C209.567 368.507 210.531 368.607 211.486 368.771L211.367 368.779C212.294 368.517 213.246 368.349 214.206 368.279C215.153 368.179 216.099 368.118 217.046 368.065C218.939 367.965 220.832 367.912 222.726 367.879C226.512 367.819 230.297 367.838 234.082 367.879C237.867 367.92 241.65 368.006 245.433 368.114C249.215 368.24 252.996 368.387 256.776 368.555Z" fill="#A5A5AF"/>
<path d="M404.274 369.413H304.285V371.425H404.274V369.413Z" fill="#525252"/>
<path d="M400.052 366.816C400.052 366.816 360.527 364.476 354.716 368.555C346.743 364.921 308.507 366.816 308.507 366.816V369.416H400.052V366.816Z" fill="#D6D6D6"/>
<path d="M400.052 368.555C396.261 368.255 392.466 368.01 388.67 367.806C384.874 367.602 381.077 367.406 377.277 367.306C373.477 367.206 369.677 367.171 365.877 367.306C363.977 367.379 362.085 367.497 360.206 367.724C359.269 367.832 358.337 367.987 357.415 368.19C356.507 368.364 355.634 368.691 354.835 369.157L354.735 369.225L354.621 369.177C353.74 368.821 352.825 368.553 351.89 368.377C350.949 368.19 349.996 368.058 349.04 367.942C347.126 367.726 345.197 367.609 343.268 367.529C339.409 367.374 335.541 367.387 331.677 367.463C327.813 367.539 323.948 367.693 320.086 367.888C316.22 368.063 312.358 368.285 308.502 368.554C316.207 367.86 323.933 367.372 331.67 367.173C335.538 367.073 339.41 367.034 343.282 367.165C345.218 367.233 347.153 367.337 349.082 367.543C350.047 367.653 351.011 367.781 351.969 367.965C352.939 368.137 353.887 368.411 354.799 368.781L354.586 368.801C355.433 368.307 356.359 367.962 357.322 367.783C358.259 367.583 359.205 367.432 360.157 367.328C362.057 367.111 363.957 367.005 365.862 366.944C369.67 366.833 373.476 366.891 377.279 367.016C384.891 367.267 392.482 367.811 400.052 368.555Z" fill="#A5A5AF"/>
<path d="M400.052 368.555C396.27 368.453 392.487 368.375 388.703 368.322C384.92 368.248 381.137 368.189 377.354 368.164C373.571 368.139 369.788 368.148 366.008 368.232C364.118 368.277 362.229 368.34 360.344 368.453C359.402 368.512 358.46 368.576 357.526 368.683C356.6 368.758 355.683 368.926 354.789 369.183L354.73 369.203L354.67 369.191C353.737 369.034 352.794 368.934 351.848 368.891C350.896 368.827 349.94 368.791 348.985 368.758C347.074 368.694 345.159 368.664 343.245 368.643C339.417 368.608 335.587 368.621 331.757 368.653L308.778 368.984L320.267 368.588L331.757 368.358C335.588 368.301 339.418 368.258 343.251 368.273C345.167 368.281 347.083 368.299 349 368.351C349.959 368.378 350.917 368.408 351.876 368.466C352.845 368.502 353.809 368.602 354.764 368.766L354.646 368.774C355.573 368.512 356.524 368.344 357.485 368.274C358.431 368.174 359.378 368.113 360.324 368.06C362.217 367.96 364.111 367.907 366.004 367.874C369.79 367.814 373.576 367.833 377.36 367.874C381.144 367.915 384.928 368.001 388.71 368.109C392.491 368.238 396.272 368.387 400.052 368.555Z" fill="#A5A5AF"/>
<path d="M452.399 540.283L454.062 550.265H461.674L464.949 549.704L462.552 534.191L452.399 540.283Z" fill="#FFE1BD"/>
<path d="M463.588 537.425C462.86 537.761 462.088 538.055 461.288 538.335C458.063 539.32 454.765 540.05 451.424 540.517C442.324 525.587 418.711 452.863 418.711 452.863C416.54 443.676 430.336 455.439 436.079 455.089C437.879 454.95 439.688 455.213 441.373 455.859C446.863 458.184 454.916 473.715 454.916 473.715C454.916 473.715 457.367 479.079 459.93 490.171C462.493 501.263 463.588 537.425 463.588 537.425Z" fill="#671E75"/>
<path opacity="0.54" d="M463.588 537.425C462.86 537.761 462.088 538.055 461.288 538.335C460.714 533.909 459.86 526.851 458.599 515.604C455.784 490.395 439.804 461.53 436.078 455.088C437.878 454.949 439.687 455.212 441.372 455.858C446.862 458.183 454.915 473.714 454.915 473.714C454.915 473.714 457.366 479.078 459.929 490.17C462.492 501.262 463.588 537.425 463.588 537.425Z" fill="#500F5C"/>
<path d="M453.567 548.812C455.542 548.827 457.505 548.526 459.384 547.919C461.218 547.242 462.888 546.186 464.284 544.819C464.284 544.819 472.363 549.752 472.352 558.61C472.348 558.838 472.276 559.059 472.144 559.244C472.012 559.429 471.827 559.571 471.613 559.649C471.613 559.649 452.241 568.255 445.577 570.609C442.068 571.728 438.498 572.651 434.886 573.374C434.667 573.444 434.43 573.43 434.22 573.336C434.01 573.241 433.842 573.073 433.748 572.863C433.398 571.963 433.224 570.385 435.2 568.869C438.2 566.569 441.487 564.686 443.766 562.778C446.045 560.87 448.374 555.609 450.219 554.112C451.777 552.666 452.931 550.84 453.567 548.812Z" fill="#1A1A47"/>
<mask id="mask0_1_2" style="mask-type:luminance" maskUnits="userSpaceOnUse" x="353" y="443" width="253" height="168">
<path d="M440.879 444.935L470.272 451.953L505.024 452.112L540.994 443.056L605.44 563.044L596.689 599.257C596.689 599.257 393.24 613.904 387.816 609.296C382.392 604.688 356.936 580.003 353.344 570.378C349.752 560.753 440.879 444.935 440.879 444.935Z" fill="white"/>
</mask>
<g mask="url(#mask0_1_2)">
<path d="M493.692 592.848L496.521 441.617H486.459L489.288 592.848C489.321 594.382 490.307 595.625 491.488 595.625C492.669 595.625 493.658 594.382 493.692 592.848Z" fill="#723E24"/>
<path d="M401.238 575.157L459.667 435.64L450.316 431.928L397.146 573.528C396.611 574.966 397.069 576.485 398.168 576.922C399.267 577.359 400.641 576.571 401.238 575.157Z" fill="#723E24"/>
<path d="M581.742 575.157L523.314 435.64L532.665 431.928L585.835 573.528C586.37 574.966 585.913 576.485 584.814 576.922C583.715 577.359 582.339 576.571 581.742 575.157Z" fill="#723E24"/>
<g style="mix-blend-mode:multiply" opacity="0.3">
<path d="M448.692 436.252L454.642 438.614L399.722 576.814C400.411 576.463 400.949 575.875 401.238 575.158L459.667 435.64L450.316 431.928L448.692 436.252Z" fill="black"/>
<path d="M486.534 445.596H494.034L491.229 595.589C491.317 595.608 491.405 595.62 491.494 595.624C492.677 595.624 493.662 594.381 493.694 592.847L496.523 441.616H486.459L486.534 445.596Z" fill="black"/>
<path d="M585.835 573.533L532.665 431.933L523.314 435.645L524.389 438.211L530.175 435.911L583.04 576.696C583.298 576.869 583.592 576.98 583.9 577.019C584.208 577.058 584.521 577.025 584.813 576.922C585.913 576.49 586.367 574.97 585.835 573.533Z" fill="black"/>
</g>
</g>
<path d="M420.627 364.896H328.179L309.879 307.359C309.665 306.686 309.613 305.971 309.727 305.273C309.84 304.576 310.117 303.915 310.534 303.345C310.952 302.774 311.497 302.31 312.128 301.99C312.758 301.671 313.455 301.504 314.161 301.504H397.179C398.133 301.504 399.062 301.807 399.832 302.37C400.602 302.933 401.172 303.726 401.461 304.635L420.627 364.896Z" fill="white"/>
<path d="M419.132 364.896H330.616L312.487 308.422C312.278 307.758 312.228 307.054 312.342 306.367C312.457 305.68 312.732 305.03 313.145 304.469C313.559 303.909 314.099 303.454 314.722 303.142C315.344 302.831 316.032 302.67 316.728 302.675H395.904C396.845 302.673 397.763 302.969 398.525 303.521C399.287 304.073 399.855 304.853 400.145 305.748L419.132 364.896Z" fill="#E1EDF9"/>
<path d="M363.599 313.35H323.267C322.979 313.35 322.702 313.235 322.498 313.031C322.294 312.827 322.179 312.551 322.179 312.262C322.179 311.973 322.294 311.697 322.498 311.493C322.702 311.289 322.979 311.174 323.267 311.174H363.594C363.883 311.174 364.16 311.289 364.364 311.493C364.568 311.697 364.682 311.973 364.682 312.262C364.682 312.55 364.568 312.826 364.365 313.03C364.162 313.233 363.887 313.349 363.599 313.35Z" fill="#C2E0F2"/>
<path d="M369.844 318.379H324.875C324.587 318.379 324.31 318.264 324.106 318.06C323.902 317.856 323.787 317.58 323.787 317.291C323.787 317.148 323.816 317.007 323.87 316.875C323.925 316.743 324.005 316.623 324.106 316.522C324.207 316.421 324.327 316.341 324.459 316.286C324.591 316.231 324.732 316.203 324.875 316.203H369.844C369.987 316.203 370.129 316.231 370.261 316.286C370.393 316.341 370.513 316.421 370.614 316.522C370.715 316.623 370.795 316.743 370.85 316.875C370.904 317.007 370.932 317.148 370.932 317.291C370.932 317.58 370.818 317.856 370.614 318.06C370.41 318.264 370.133 318.379 369.844 318.379Z" fill="#C2E0F2"/>
<path d="M365.678 323.408H326.511C326.368 323.408 326.227 323.38 326.095 323.325C325.963 323.271 325.843 323.19 325.742 323.089C325.641 322.988 325.561 322.868 325.506 322.736C325.451 322.604 325.423 322.463 325.423 322.32C325.423 322.031 325.538 321.755 325.742 321.551C325.946 321.347 326.223 321.232 326.511 321.232H365.677C365.966 321.232 366.243 321.347 366.447 321.551C366.651 321.755 366.765 322.031 366.765 322.32C366.765 322.608 366.651 322.885 366.447 323.089C366.243 323.293 365.967 323.408 365.678 323.408Z" fill="#C2E0F2"/>
<path d="M359.15 328.437H328.107C327.819 328.437 327.542 328.322 327.338 328.118C327.134 327.914 327.019 327.638 327.019 327.349C327.019 327.06 327.134 326.784 327.338 326.58C327.542 326.376 327.819 326.261 328.107 326.261H359.15C359.439 326.261 359.716 326.376 359.92 326.58C360.124 326.784 360.238 327.06 360.238 327.349C360.238 327.638 360.124 327.914 359.92 328.118C359.716 328.322 359.439 328.437 359.15 328.437Z" fill="#C2E0F2"/>
<path d="M374.72 333.465H329.751C329.608 333.465 329.467 333.437 329.335 333.382C329.203 333.328 329.083 333.247 328.982 333.146C328.881 333.045 328.801 332.925 328.746 332.793C328.691 332.661 328.663 332.52 328.663 332.377C328.663 332.088 328.778 331.812 328.982 331.608C329.186 331.404 329.463 331.289 329.751 331.289H374.72C375.009 331.289 375.286 331.404 375.49 331.608C375.694 331.812 375.808 332.088 375.808 332.377C375.808 332.52 375.78 332.661 375.726 332.794C375.671 332.926 375.591 333.046 375.49 333.147C375.389 333.248 375.269 333.328 375.137 333.382C375.005 333.437 374.863 333.465 374.72 333.465Z" fill="#C2E0F2"/>
<path d="M370.527 338.496H331.361C331.218 338.496 331.077 338.468 330.945 338.413C330.813 338.359 330.693 338.278 330.592 338.177C330.491 338.076 330.411 337.956 330.356 337.824C330.301 337.692 330.273 337.551 330.273 337.408C330.273 337.265 330.301 337.124 330.356 336.992C330.411 336.86 330.491 336.74 330.592 336.639C330.693 336.538 330.813 336.458 330.945 336.403C331.077 336.348 331.218 336.32 331.361 336.32H370.527C370.816 336.32 371.093 336.435 371.297 336.639C371.501 336.843 371.615 337.119 371.615 337.408C371.615 337.697 371.501 337.973 371.297 338.177C371.093 338.381 370.816 338.496 370.527 338.496Z" fill="#C2E0F2"/>
<path d="M379.539 348.552H334.567C334.424 348.552 334.283 348.524 334.151 348.469C334.019 348.415 333.899 348.334 333.798 348.233C333.697 348.132 333.617 348.012 333.562 347.88C333.508 347.748 333.479 347.607 333.479 347.464C333.479 347.321 333.508 347.18 333.562 347.048C333.617 346.916 333.697 346.796 333.798 346.695C333.899 346.594 334.019 346.513 334.151 346.459C334.283 346.404 334.424 346.376 334.567 346.376H379.536C379.679 346.376 379.821 346.404 379.953 346.459C380.085 346.513 380.205 346.594 380.306 346.695C380.407 346.796 380.487 346.916 380.542 347.048C380.596 347.18 380.624 347.321 380.624 347.464C380.624 347.752 380.51 348.028 380.307 348.232C380.103 348.436 379.827 348.551 379.539 348.552Z" fill="#C2E0F2"/>
<path d="M381.176 353.581H336.207C335.919 353.581 335.642 353.466 335.438 353.262C335.234 353.058 335.119 352.782 335.119 352.493C335.119 352.204 335.234 351.928 335.438 351.724C335.642 351.52 335.919 351.405 336.207 351.405H381.176C381.32 351.405 381.462 351.433 381.594 351.487C381.727 351.542 381.847 351.622 381.949 351.724C382.05 351.825 382.13 351.945 382.185 352.078C382.24 352.211 382.268 352.353 382.267 352.496C382.267 352.639 382.238 352.78 382.183 352.912C382.128 353.044 382.048 353.164 381.947 353.264C381.845 353.365 381.725 353.445 381.593 353.499C381.461 353.554 381.319 353.581 381.176 353.581Z" fill="#C2E0F2"/>
<path d="M405.088 353.581H390.567C389.908 353.582 389.265 353.372 388.733 352.982C388.201 352.592 387.807 352.042 387.608 351.413L375.498 313.085C375.351 312.62 375.315 312.127 375.394 311.645C375.473 311.164 375.664 310.708 375.953 310.315C376.241 309.921 376.618 309.601 377.053 309.381C377.488 309.161 377.97 309.046 378.457 309.047H392.983C393.643 309.047 394.286 309.256 394.818 309.646C395.35 310.036 395.744 310.586 395.942 311.215L408.051 349.543C408.199 350.008 408.235 350.502 408.156 350.984C408.077 351.465 407.885 351.921 407.596 352.315C407.307 352.709 406.93 353.028 406.494 353.248C406.058 353.468 405.577 353.582 405.088 353.581Z" fill="#C2E0F2"/>
<path d="M428.374 369.084H327.84C327.052 369.084 326.296 368.77 325.738 368.213C325.18 367.655 324.867 366.899 324.867 366.11C324.867 365.321 325.18 364.565 325.738 364.007C326.296 363.45 327.052 363.136 327.84 363.136H428.374C429.163 363.136 429.92 363.449 430.477 364.007C431.035 364.565 431.348 365.321 431.348 366.11C431.348 366.899 431.035 367.655 430.477 368.213C429.92 368.771 429.163 369.084 428.374 369.084Z" fill="white"/>
<path d="M457.401 289.585C456.955 289.587 456.517 289.47 456.131 289.247C455.744 289.025 455.424 288.704 455.201 288.317L451.857 282.435C451.69 282.142 451.584 281.819 451.545 281.484C451.505 281.149 451.534 280.81 451.628 280.486C451.723 280.163 451.881 279.862 452.094 279.601C452.308 279.34 452.571 279.124 452.869 278.967L462.178 274.05C462.764 273.744 463.446 273.679 464.079 273.87C464.711 274.061 465.244 274.492 465.562 275.071L468.739 280.904C468.898 281.194 468.997 281.513 469.032 281.842C469.067 282.171 469.037 282.503 468.944 282.82C468.85 283.137 468.695 283.433 468.487 283.69C468.279 283.947 468.022 284.16 467.731 284.318L458.59 289.283C458.225 289.481 457.817 289.585 457.401 289.585ZM463.35 274.921C463.131 274.921 462.916 274.974 462.722 275.077L453.413 279.993C453.253 280.078 453.111 280.194 452.996 280.334C452.881 280.475 452.796 280.637 452.745 280.812C452.694 280.986 452.679 281.169 452.7 281.349C452.721 281.529 452.778 281.703 452.868 281.861L456.213 287.743C456.39 288.05 456.68 288.276 457.021 288.373C457.362 288.47 457.727 288.431 458.039 288.263L467.18 283.298C467.496 283.126 467.73 282.836 467.832 282.491C467.934 282.147 467.894 281.776 467.722 281.46L464.546 275.627C464.429 275.413 464.256 275.234 464.045 275.11C463.835 274.986 463.595 274.92 463.35 274.921Z" fill="#1A1A47"/>
<path d="M419.248 350.396C418.881 350.872 418.49 351.33 418.076 351.766C418.076 351.766 413.202 348.075 411.844 347.727C410.486 347.379 407.597 348.458 405.944 348.551C404.291 348.644 404.158 347.668 404.158 347.668C404.158 347.668 397.867 350.291 396.858 350.535C395.849 350.779 395.163 350.442 395.79 348.841C396.099 348.262 396.49 347.73 396.951 347.263L396.963 347.251C399.11 344.825 403.532 340.951 405.121 340.183C407.152 339.22 409.914 337.816 412.13 338.64C414.346 339.464 421.565 344.872 421.565 344.872C421.778 346.728 420.339 348.996 419.248 350.396Z" fill="#FFE1BD"/>
<path d="M420.746 345.196L419.246 350.396C418.879 350.872 418.488 351.33 418.074 351.766C418.074 351.766 413.2 348.075 411.842 347.727C410.484 347.379 407.595 348.458 405.942 348.551C404.289 348.644 404.156 347.668 404.156 347.668C404.156 347.668 397.865 350.291 396.856 350.535C395.847 350.779 395.161 350.442 395.788 348.841C396.097 348.262 396.488 347.73 396.949 347.263C396.416 348.001 395.824 348.763 396.174 349.701C396.6 350.846 403.351 347.627 408.228 344.686C408.304 344.64 408.696 344.446 408.828 344.673C408.826 344.778 408.801 344.882 408.755 344.976C408.708 345.07 408.642 345.154 408.56 345.22C407.747 346.093 403.66 346.4 404.487 347.704C405.653 349.538 409.849 346.172 412.146 346.926C413.984 347.658 415.723 348.617 417.322 349.781C417.322 349.781 418.645 345.869 420.746 345.196Z" fill="#FFD19F"/>
<path d="M417.335 351.768C417.335 351.768 441.246 372.681 459.135 374.809C477.024 376.937 507.2 342.996 507.2 342.996C507.2 342.996 505.3 324.913 494.145 327.039C482.99 329.165 468.034 356.051 461.555 357.309C455.076 358.567 421.385 344.288 421.385 344.288C420.534 345.004 419.827 345.875 419.301 346.855C418.455 348.41 417.795 350.059 417.335 351.768Z" fill="#4060B9"/>
<path d="M498.69 248.701C492.147 241.211 482.475 240.401 475.009 241.231C470.193 241.706 465.622 243.583 461.862 246.63C458.102 249.677 455.319 253.76 453.856 258.373C452.45 263 452.607 267.962 454.301 272.491C460.394 289.318 466.776 300.053 472.724 303.244C474.994 304.462 479.335 303.65 483.972 302.021C484.267 301.915 484.589 301.919 484.881 302.031C485.173 302.142 485.416 302.355 485.564 302.63L487.521 306.291L504.735 302.568C503.317 299.398 502.183 296.109 501.346 292.738C503.847 289.579 510.667 262.404 498.69 248.701Z" fill="#FFE1BD"/>
<path d="M463.903 272.709C464.94 272.608 465.982 272.837 466.88 273.364C467.779 273.892 468.487 274.69 468.903 275.645C470.318 279.013 472.503 283.725 474.221 285.257C474.502 285.441 474.829 285.54 475.165 285.544C475.5 285.547 475.829 285.454 476.113 285.275C476.391 285.149 476.623 284.94 476.778 284.677C476.932 284.414 477.002 284.11 476.977 283.806C476.512 281.517 475.846 279.273 474.988 277.1C474.715 276.471 474.589 275.789 474.618 275.104C474.648 274.419 474.834 273.75 475.16 273.147C475.487 272.545 475.947 272.024 476.505 271.626C477.062 271.227 477.703 270.961 478.379 270.847C479.315 270.731 480.265 270.79 481.179 271.02C486.268 272.564 482.762 280.544 482.659 284.713C482.587 287.651 486.104 294.461 487.659 295.073C492.772 297.079 500.521 295.267 504.631 290.189C508.741 285.111 509.631 268.14 507.387 257.989C505.143 247.838 497.015 242.105 494.332 241.452C493.293 241.187 492.216 241.1 491.147 241.196C490.743 241.234 490.335 241.188 489.949 241.062C489.563 240.936 489.207 240.732 488.903 240.463C486.198 238.109 478.114 232.73 465.325 238.252C459.755 240.544 455.015 244.479 451.737 249.533C448.459 254.586 446.798 260.518 446.975 266.539C447.164 270.876 450.57 270.556 452.931 269.8C453.574 269.605 454.255 269.577 454.912 269.719C455.568 269.861 456.177 270.168 456.681 270.611C457.681 271.431 458.836 272.04 460.077 272.401C461.319 272.761 462.62 272.866 463.903 272.709Z" fill="#0B0B3A"/>
<path d="M486.989 309.047C486.989 309.047 485.508 307.397 486.07 306.388C486.77 305.136 494.322 299.159 503.139 299.473C504.51 299.522 506.185 299.522 507.829 303.1C508.746 304.993 509.428 306.99 509.86 309.048L486.989 309.047Z" fill="#6684D6"/>
<path d="M520.548 453.651C520.014 453.779 519.434 453.906 518.83 454.023C511.345 455.416 499.171 455.578 499.171 455.578C475.171 455.149 463.041 432.791 459.142 426.118C458.391 424.873 457.75 423.564 457.227 422.207C458.597 421.476 474.899 412.686 474.027 382.669C473.846 376.449 473.934 362.523 470.836 357.115C469.13 354.144 464.082 348.121 460.914 341.774C458.314 336.551 456.969 331.109 459.814 326.954C466.87 316.591 477.999 311.078 477.999 311.078C477.999 311.078 498.424 302.897 515.82 304.753C526.856 305.913 536.685 311.112 539.308 325.004C546.073 360.781 520.548 453.651 520.548 453.651Z" fill="#6684D6"/>
<path opacity="0.18" d="M480.702 374.812C483.668 404.343 463.564 422.938 459.142 426.118C458.391 424.873 457.75 423.564 457.227 422.207C458.597 421.476 473.927 408.171 474.027 382.669C474.053 376.446 473.934 362.523 470.836 357.115C469.13 354.144 464.082 348.121 460.914 341.774L462.26 341.252L470.453 339.894L474.608 343.283C474.608 343.283 478.781 355.682 480.702 374.812Z" fill="#C9DBF0"/>
<path opacity="0.45" d="M520.548 453.651C520.014 453.779 519.434 453.906 518.83 454.023C520.362 445.957 530.058 395.306 533.215 376.936C539.447 340.67 532.96 322.301 529.304 315.72C526.349 310.401 520.659 307.585 515.819 304.753C526.855 305.913 536.684 311.112 539.307 325.004C546.073 360.781 520.548 453.651 520.548 453.651Z" fill="#C9DBF0"/>
<path d="M402.797 561.87C400.978 562.584 399.043 562.957 397.089 562.97C393.565 562.97 392.541 561.653 392.541 561.653V553.617L404.15 552.123L402.797 561.87Z" fill="#FFE1BD"/>
<path d="M494.006 449.488C493.936 454.712 492.55 463.045 484.721 465.398C473.041 468.898 464.413 466.911 450.871 464.572C439.527 462.625 409.651 456.194 404.161 454.108C404.002 454.046 403.829 454.028 403.66 454.056C403.492 454.084 403.334 454.157 403.203 454.268C403.073 454.378 402.974 454.522 402.919 454.683C402.863 454.845 402.852 455.019 402.886 455.186C405.477 467.847 407.548 473.319 409.227 492.318C410.638 508.28 404.505 553.461 404.505 553.461C403.236 553.84 401.945 554.14 400.639 554.361C399.903 554.481 399.158 554.548 398.412 554.561C396.242 554.518 394.076 554.336 391.928 554.015C391.928 554.015 379.814 487.476 378.176 460.515C376.538 433.554 379.115 431.328 391.369 425.615C403.623 419.902 458.404 422.015 458.404 422.015L458.418 422.029C458.572 422.505 461.653 430.922 470.743 438.541C477.458 444.082 485.457 447.846 494.006 449.488Z" fill="#671E75"/>
<path d="M460.692 426.668C459.806 425.186 459.046 423.633 458.419 422.024L458.405 422.01C458.405 422.01 457.77 421.986 456.672 421.951C457.904 423.613 459.247 425.189 460.692 426.668Z" fill="#33305B"/>
<path d="M486.455 447.389C485.355 451.345 482.985 455.2 478.055 456.682C466.375 460.182 457.747 458.195 444.205 455.856C432.861 453.909 402.984 447.478 397.494 445.391C397.335 445.329 397.162 445.311 396.994 445.34C396.825 445.368 396.667 445.441 396.537 445.551C396.407 445.662 396.308 445.805 396.253 445.967C396.197 446.128 396.186 446.302 396.22 446.469C398.811 459.13 400.882 464.602 402.561 483.601C403.661 496.03 403.192 536.548 402.93 553.881C403.847 553.656 404.506 553.46 404.506 553.46C404.506 553.46 410.639 508.279 409.228 492.317C407.548 473.317 405.477 467.846 402.886 455.186C402.852 455.019 402.863 454.845 402.919 454.683C402.975 454.522 403.073 454.378 403.203 454.268C403.334 454.157 403.492 454.084 403.66 454.056C403.829 454.028 404.002 454.045 404.161 454.107C409.651 456.194 439.527 462.625 450.871 464.571C464.414 466.91 473.041 468.899 484.721 465.398C492.55 463.045 493.936 454.712 494.006 449.488C491.445 448.957 488.923 448.256 486.455 447.389Z" fill="#500F5C"/>
<path d="M392.343 560.529C394.187 561.234 396.133 561.64 398.105 561.729C400.06 561.733 401.994 561.324 403.78 560.529C403.78 560.529 409.626 567.974 406.52 576.27C406.437 576.482 406.292 576.664 406.103 576.791C405.915 576.919 405.692 576.986 405.464 576.985H366.259C366.029 576.988 365.807 576.901 365.641 576.742C365.475 576.583 365.378 576.365 365.37 576.135C365.357 575.169 365.745 573.63 368.126 572.901C371.744 571.792 375.479 571.179 378.28 570.187C381.081 569.195 385.102 565.081 387.354 564.322C389.319 563.513 391.038 562.206 392.343 560.529Z" fill="#1A1A47"/>
<path d="M374.558 364.025C374.558 364.025 371.069 363.113 369.258 362.743C368.618 362.616 367.971 362.521 367.321 362.46C366.554 362.396 365.783 362.42 365.021 362.532L346.277 365.126C346.017 365.158 345.754 365.087 345.546 364.928C345.337 364.768 345.2 364.533 345.163 364.273C345.112 363.915 345.152 363.549 345.279 363.21C345.407 362.871 345.617 362.569 345.891 362.333L347.723 360.756L353.197 356.038C355.908 353.706 358.056 353.289 361.64 353.11C362.943 353.293 364.234 353.555 365.505 353.893C369.178 354.566 370.015 354.993 372.463 355.493C373.138 355.645 373.822 355.754 374.511 355.819C374.782 355.867 375.061 355.856 375.327 355.788C376.116 358.533 375.841 361.474 374.558 364.025Z" fill="#FFE1BD"/>
<path d="M403.173 365.887C403.162 365.905 403.144 365.919 403.123 365.924C403.103 365.93 403.081 365.928 403.061 365.918C402.581 365.718 399.652 364.518 398.061 363.95C397.473 363.744 396.918 363.588 396.438 363.467C395.599 363.278 394.743 363.175 393.882 363.16H375.067C374.786 363.166 374.513 363.06 374.31 362.865C374.106 362.67 373.988 362.403 373.981 362.121C373.986 361.766 374.079 361.418 374.251 361.107C374.423 360.796 374.669 360.533 374.967 360.34L376.998 359.029C375.077 360.489 374.767 361.588 375.73 361.704C376.5 361.797 378.323 361.595 382.942 360.309C383.042 360.28 383.087 360.443 382.995 360.5C382.76 360.603 382.572 360.79 382.467 361.025C382.362 361.259 382.349 361.524 382.429 361.768C382.509 362.012 382.677 362.218 382.9 362.344C383.123 362.471 383.386 362.51 383.636 362.454C384.412 362.416 387.711 362.207 388.471 362.164C391.421 361.995 395.72 361.717 396.546 361.864C397.99 362.124 399.385 362.607 400.68 363.296C401.488 363.717 402.257 362.796 402.551 361.934C403.017 360.524 403.572 359.146 404.211 357.806C404.473 357.891 404.751 357.919 405.024 357.888C405.419 360.692 404.76 363.542 403.173 365.887Z" fill="#F4F4F4"/>
<path d="M477.241 320.732C474.761 319.218 467.26 315.052 457.589 330.132C447.918 345.212 440.182 356.532 436.797 358.56C433.412 360.588 425.097 359.14 422.097 359.14C419.097 359.14 375.21 355.716 375.21 355.716C373.989 358.401 373.159 361.246 372.744 364.166C372.744 364.166 412.958 374.71 437.884 374.806C462.81 374.902 481.765 337.187 482.635 332.641C483.505 328.095 483.167 324.351 477.241 320.732Z" fill="#6684D6"/>
<path d="M453.182 285.61C453.051 285.612 452.922 285.569 452.818 285.488C452.714 285.408 452.641 285.294 452.61 285.166C452.579 285.038 452.593 284.903 452.649 284.784C452.705 284.665 452.799 284.568 452.917 284.51L474.541 273.427C476.988 272.173 481.997 269.608 485.715 275.062C485.802 275.189 485.835 275.346 485.806 275.497C485.778 275.648 485.69 275.782 485.563 275.869C485.436 275.955 485.279 275.988 485.128 275.959C484.977 275.931 484.843 275.843 484.756 275.716C481.856 271.461 478.4 272.752 475.111 274.44L453.447 285.54C453.366 285.584 453.275 285.608 453.182 285.61Z" fill="#1A1A47"/>
<path d="M474.9 274.812L477.511 283.153C477.78 283.42 478.103 283.627 478.459 283.759C478.814 283.891 479.194 283.945 479.572 283.917C479.951 283.89 480.319 283.782 480.651 283.6C480.984 283.418 481.274 283.167 481.501 282.863C483.459 280.609 485.163 272.781 481.573 271.476C477.983 270.171 475.807 272.02 474.9 274.812Z" fill="#FFE1BD"/>
<path d="M573.184 395.602C573.184 353.48 572.193 323.802 545.512 319.334C509.212 313.259 480.812 344.69 486.625 404.913C489.955 439.42 475.805 451.264 463.754 458.003C455.962 462.361 440.879 461.426 440.879 461.426C440.879 461.426 433.893 460.598 429.204 460.156C432.104 461.494 494.26 492.123 538.612 469.492C577.925 449.433 573.184 420.383 573.184 395.602Z" fill="#E8F6F7"/>
<path d="M573.184 395.602C573.184 353.48 572.193 323.802 545.512 319.334C544.23 319.119 542.958 318.957 541.697 318.834C512.612 321.713 493.555 352.344 498.629 404.934C501.959 439.441 487.809 451.284 475.758 458.024C467.966 462.382 452.883 461.447 452.883 461.447C452.883 461.447 452.529 461.336 451.883 461.141C448.229 461.506 444.552 461.602 440.883 461.429C440.883 461.429 433.897 460.601 429.208 460.159C432.108 461.497 494.264 492.126 538.616 469.495C577.925 449.433 573.184 420.383 573.184 395.602Z" fill="#D0E0E2"/>
</g>
<defs>
<clipPath id="clip0_1_2">
<rect width="635.652" height="595.626" fill="white" transform="translate(0.208374)"/>
</clipPath>
</defs>
</svg>
